<svg xmlns="http://www.w3.org/2000/svg" style="display:none">
<symbol id="icon-lightbulb" viewBox="0 0 32 32">
<path d="M20 32v-3h1v-3h1v-5.75c3.125-2.063 5-5.5 5-9.25 0-6.063-4.938-11-11-11s-11 4.938-11 11c0 3.75 1.938 7.25 5 9.25v5.75h1v3h1v3zM19 31h-6v-2h6zM10.75 19.563c-2.938-1.813-4.75-5.063-4.75-8.563 0-5.5 4.5-10 10-10s10 4.5 10 10c0 3.5-1.75 6.688-4.75 8.5l-0.25 0.188v2.313h-2.438l1.438-9.438-1-0.125-0.063 0.375-1.375 1-1.563-1.5-1.563 1.5-1.375-1-0.063-0.375-1 0.125 1.438 9.438h-2.438v-2.25zM14.438 22l-1.188-7.813 1.313 1 1.438-1.5 1.438 1.5 1.313-1-1.188 7.813zM11 23h10v2h-10zM12 26h8v2h-8z"></path>
</symbol>
<symbol id="icon-phone" viewBox="0 0 32 32">
<path d="M7.5 32h17v-32h-17zM8.5 31v-5h15v5zM8.5 25v-20h15v20zM23.5 1v3h-15v-3zM14 2h4v1h-4zM16 27c-0.813 0-1.5 0.688-1.5 1.5s0.688 1.5 1.5 1.5c0.813 0 1.5-0.688 1.5-1.5s-0.688-1.5-1.5-1.5zM16 29c-0.25 0-0.5-0.25-0.5-0.5s0.25-0.5 0.5-0.5c0.25 0 0.5 0.25 0.5 0.5s-0.25 0.5-0.5 0.5z"></path>
</symbol>
<symbol id="icon-watch" viewBox="0 0 32 32">
<path d="M26.5 16c0-3.5-1.75-6.563-4.375-8.5h0.375v-7.5h-13v7.5h0.375c-2.625 1.938-4.375 5-4.375 8.5s1.75 6.563 4.375 8.5h-0.375v7.5h13v-7.5h-0.375c2.625-1.938 4.375-5 4.375-8.5zM10.5 1h11v6.063c-1.625-1-3.5-1.563-5.5-1.563s-3.875 0.563-5.5 1.563zM21.5 31h-11v-6.063c1.625 1 3.5 1.563 5.5 1.563s3.875-0.563 5.5-1.563zM16 25.5c-5.25 0-9.5-4.25-9.5-9.5s4.25-9.5 9.5-9.5c5.25 0 9.5 4.25 9.5 9.5s-4.25 9.5-9.5 9.5zM16.5 10h-1v6.313l4.25 2.125 0.5-0.875-3.75-1.875z"></path>
</symbol>
<symbol id="icon-webpagetxt" viewBox="0 0 32 32">
<path d="M3 12h26v1h-26zM3 16h26v1h-26zM3 20h26v1h-26zM32 3h-32v26h32zM31 4v3h-30v-3zM1 28v-20h30v20zM3 5h2v1h-2zM7 5h2v1h-2zM11 5h2v1h-2z"></path>
</symbol>
<symbol id="icon-search" viewBox="0 0 512 512"><path d="M337.509 305.372h-17.501l-6.571-5.486c20.791-25.232 33.922-57.054 33.922-93.257C347.358 127.632 283.896 64 205.135 64 127.452 64 64 127.632 64 206.629s63.452 142.628 142.225 142.628c35.011 0 67.831-13.167 92.991-34.008l6.561 5.487v17.551L415.18 448 448 415.086 337.509 305.372zm-131.284 0c-54.702 0-98.463-43.887-98.463-98.743 0-54.858 43.761-98.742 98.463-98.742 54.7 0 98.462 43.884 98.462 98.742 0 54.856-43.762 98.743-98.462 98.743z"/></symbol>
<symbol id="icon-close" viewBox="0 0 512 512"><path d="M405 136.798L375.202 107 256 226.202 136.798 107 107 136.798 226.202 256 107 375.202 136.798 405 256 285.798 375.202 405 405 375.202 285.798 256z"/></smybol>
<symbol id="icon-logo" viewBox="0 0 324.48 215.55">
  <path class="cls-1" d="M84.47,114.36a290.05,290.05,0,0,0-10.88-32.2c-3.38-8.37-7-16.06-10.52-23.07Q31.54,137.33,0,215.55H49.76Z"/><path class="cls-1" d="M32,7.5a103.21,103.21,0,0,1,17.47,2.89,79.82,79.82,0,0,1,16.92,6.5c1.35.71,2.7,1.45,4,2.25s2.65,1.58,3.95,2.43c2.61,1.7,5.1,3.58,7.57,5.53a72.4,72.4,0,0,1,7,6.35c1.09,1.13,2.18,2.28,3.22,3.47s2,2.44,3,3.69a109.92,109.92,0,0,1,9.59,16,151.19,151.19,0,0,1,7.18,16.93c1.07,2.85,2,5.74,2.83,8.63s1.67,5.78,2.45,8.67c1.46,5.8,2.69,11.61,3.9,17.37l6.43,34.28c1.08,5.63,2.27,11.2,3.67,16.66a141.11,141.11,0,0,0,4.86,16,75.56,75.56,0,0,0,7.3,14.68,47.25,47.25,0,0,0,10.91,11.87,62.18,62.18,0,0,0,6.94,4.65,82.3,82.3,0,0,0,7.57,3.8,74.11,74.11,0,0,0,8.07,3c2.76.92,5.59,1.62,8.45,2.32a87.63,87.63,0,0,1-8.86-.25,73,73,0,0,1-8.85-1.39,66.65,66.65,0,0,1-17-6.44,55.35,55.35,0,0,1-14.59-11.9,87.35,87.35,0,0,1-10.68-15.37c-6-10.85-10.27-22.3-13.81-33.68-1.81-5.69-3.34-11.41-4.88-17.07l-4.36-16.9c-2.86-11.18-5.44-22.21-8.29-33A145.19,145.19,0,0,0,82.33,48.74c-.6-1.22-1.25-2.41-1.9-3.6s-1.29-2.39-2-3.57c-1.39-2.34-2.85-4.65-4.45-6.88a59.11,59.11,0,0,0-5.24-6.39c-1-1-1.92-2-2.94-2.95s-2.09-1.85-3.17-2.73A80.86,80.86,0,0,0,32,7.5Z"/><polygon class="cls-1" points="136.04 0 188.17 0 238.06 88.02 270.4 0 324.48 0 247.97 192.31 246.46 192.69 244.65 193.59 241.53 193.59 238.03 194.93 232.48 197.16 221.36 196.68 214.89 196.33 205.95 194.24 198.19 191.98 196.46 191.02 215.41 147.05 136.04 0"/><path class="cls-1" d="M211.35,186.71a.1.1,0,0,1,0-.15,2.7,2.7,0,0,1,.52-.2C211.79,186.51,211.67,186.64,211.35,186.71Zm-2.44-1.39c-.4.14-.16-.1-.55,0-.08.14.12.12-.06.32A.77.77,0,0,0,208.91,185.32Zm34.47,5.38c-.57.64-.64.2-1.29.78,0,.36.61-.19,1-.35C243,191,243.5,190.82,243.38,190.7ZM212.53,187l-.37.11c.19.09.24.19.45.18C212.76,187,212.29,187.21,212.53,187Zm-1-.66c-.19.06-.45.1-.52.19.19,0-.07.09-.09.18.23,0,.31-.14.52-.19ZM208,185.18c-.26,0-.14-.28-.68-.15,0,.08-.12.14-.21.21C208.12,184.87,207.22,185.57,208,185.18Zm3.76.83c-.08-.09-.48,0-.78.06C210.81,186.31,211.65,186.12,211.78,186Zm-8.88-2.31c.47-.11.26.14.44.18s.23-.24.49-.3c-.06.09.32,0,.11,0s-.17-.19.07-.32c-.22,0-.3.12-.51.16.09-.28-.48-.21-.52-.42.05.16-.41.12-.36.27S203.47,183.24,202.9,183.7Zm42.18,7.42c.65-.45.62-.18,1.1-.46.07-.32-.66.15-.26-.38-.42.33-.23,0-.47.13-.34.36.16.05.19.18C245.45,190.77,245.14,191,245.08,191.12Zm2-1.46c-.6.44-.29-.12-.69.09-.23.36-.34.12-.48.2C245.76,190.35,247,189.85,247.05,189.66Zm-42.54-6c.36,0,.36.16.65.17C205.44,183.56,204.74,183.59,204.51,183.7Zm.86.38c-.2-.1-.41,0-.93.14-.16-.18-.05-.18.34-.42-.51.17-1.06,0-1.36.32.28.09,1,0,.81.3A2.26,2.26,0,0,0,205.37,184.08Zm1.73,1,.12-.24-.49.12C206.67,185.11,206.79,185.15,207.1,185.09Zm-1-.61c0,.15-.64.1-.67.25.24,0,.42.09.7.11.23-.22-.12-.1-.13-.18S206.32,184.48,206.13,184.48Zm15,2.88c-.34.2-.45,0-.62.24.25,0,.34.28.75,0C220.83,187.67,221,187.62,221.1,187.36Zm-.13.91c0-.14.07-.32-.08-.34C220.61,188.15,220.28,188.56,221,188.27Zm-10.12-2.1c.06-.12.12-.24.17-.36-.16.05-.36-.08-.46.07C211.11,185.79,210.5,186.17,210.85,186.17Zm17,2.73c-.07-.13-.27-.15-.78.08.36-.35-.81,0-.84-.07.06.18.71,0,.3.42A13.2,13.2,0,0,0,227.83,188.9Zm-2.61-.22c-.74.38-.59.06-.75,0-.06.11-.3.19-.42.29,0,.36,1.76-.36,1,.3.59-.22.5.1.84.09.19-.3-.23-.1-.25-.23.19-.09.45-.17.52-.28C225.8,188.81,225.26,188.94,225.22,188.68Zm-4.69-.94c-.29-.05-.27.24-.67.36.19-.31-.81.07-.3-.32-.59.35-.32,0-.95.23a3.23,3.23,0,0,0,1.78.1C220.1,188.1,220.05,188,220.53,187.74Zm5.71.44c-.1.3,1,.46,1.87-.18C227.14,188.53,226.77,188.18,226.24,188.18Zm-3.9.75c.21.35,1.32,0,1.17.62.08-.13.2-.05.28-.17-.2,0-.15-.13-.27-.16.16-.07.36-.14.4-.22A3.13,3.13,0,0,0,222.34,188.93ZM214,187c.05,0,.41-.33.11-.24-.39.39,0-.1-.44,0-.22.23-.07.14-.16.36Zm-1.5-.24c-.61.21-.46-.07-.85,0-.09.21.31.1.18.32C212.24,186.85,212.27,187,212.51,186.74Zm1.15-.18c-.09,0-.12,0-.07-.08l-.37.11a.79.79,0,0,1-.31.46c.23-.06.3-.15.52-.21C213.42,186.68,213.38,186.75,213.66,186.56Zm2.05.94c0-.24.51-.38.78-.57-.38.12-.79.17-.69-.14-.41.18-.44.09-.56.07-.21.33.57,0,.41.29a.79.79,0,0,1-.5.16c-.25.24-.31.42.07.35.12-.13-.26-.14.13-.3C215.91,187.2,215.22,187.65,215.71,187.5Zm1.53.45a2.32,2.32,0,0,0,1.27,0C218.33,187.82,218.33,187.34,217.24,188Zm6.19.33a.67.67,0,0,0-.76,0A3.38,3.38,0,0,0,223.43,188.28Zm8.45,5.07c.18-.19.78-.51.5-.52S231.55,193.42,231.88,193.35Zm1.71,20.8.14-.27a4,4,0,0,0-1.11.66A3.33,3.33,0,0,1,233.59,214.15Zm-2.62.06c.22,0,0,.31.44.15C231.61,214.08,231.23,214.19,231,214.21ZM234,214c-.14.19.23,0,0,.28l.64-.27C234.84,213.78,234.63,213.77,234,214Zm-12.76-19.38Zm9.14,16.88c.64-.35-.19,0,.36-.46a1.45,1.45,0,0,1-.44.12C230.45,211.34,230,211.62,230.42,211.52Zm25.89-19c0-.26-.71.37-.87.33C255.48,193,255.71,193,256.31,192.53ZM221,194.6l.32,0C221.49,194.43,221.15,194.39,221,194.6Zm.64-.71c0,.16-.29.27-.4.41C221.63,194.32,221.94,193.86,221.6,193.89Zm40.23-5c.11-.42-.19-.29-.3-.41C261.49,188.86,261.57,189,261.83,188.88Zm-51.7,25.3c-.42-.09-.93-.15-1.35-.25A1.57,1.57,0,0,0,210.13,214.18Zm20.12-.08a3.64,3.64,0,0,0-.52.25c0-.19-.34,0,.21-.4a1.38,1.38,0,0,1-.86.16c.08.18.58.16-.23.66a4.67,4.67,0,0,0,1.26-.4c0,.06-.37.41,0,.27.15-.15.16,0,.29,0a1,1,0,0,0,.38-.46Q230.15,214.34,230.25,214.1Zm32.29-25.36c.14-.34-.2-.1,0-.44-.22.22-.31.17-.38.33S262,189,262.54,188.74Zm-48.54,26c-.08-.11-.49-.07-.77-.08C213.12,214.91,213.53,214.87,214,214.79Zm8.9.69c.08-.16-.16-.14-.3-.18C222.19,215.54,222.41,215.63,222.9,215.48Zm10.58-22.63c.19-.07.19,0,.36-.06a1.14,1.14,0,0,1,.43-.33c0,.1.29,0,.26-.14-.33.17-.48.17-.44,0-.2.11-.48.22-.54.33C234.3,192.3,233.72,192.74,233.48,192.85Zm-11,1.22a.8.8,0,0,1,.37-.36c-.06.11.36-.1.13-.05s-.13,0-.08-.07C222.5,193.68,222.16,194.11,222.43,194.07Zm12.9-1.42c.3-.14.17.11.59-.14C236.17,192.19,235.43,192.51,235.33,192.65Zm-3.64-.1c-.18.07-.19,0-.35.06,0,.21-.17.36,0,.39C231.29,192.85,231.72,192.71,231.69,192.55Zm-.12.73c0-.09.25-.17.3-.26a3.55,3.55,0,0,1-.7.11C231.13,193.32,231.45,193.21,231.57,193.28Zm5-.58c0-.09.05-.18.07-.27a2.19,2.19,0,0,0-.54.35C236.33,192.65,236.28,192.82,236.54,192.7ZM236,192c-.33,0-1.51.75-.8.08-.52.38-1.11.75-1.55,1.13a4.56,4.56,0,0,0,1.46-.8c.29-.1.69,0,1-.28C235.78,192.22,235.79,192.15,236,192Zm2.64.12c-.07.24.31,0,.56,0C239.17,191.9,238.88,192,238.6,192.1Zm-11.79,1.37c.27-.13.61-.72.12-.32C227.31,193,226.31,193.61,226.81,193.47Zm4.91-3.51c.41-.09.11.1-.19.26l-.06.2c.46-.14.3-.3.68-.45.06-.18-.18,0,.07-.26C231.91,189.94,231.8,189.78,231.72,190Zm-5.2,3.09c-.15.25,0,.28.25.22C226.85,193.07,226.77,193,226.52,193.05Zm2.79,1.26c.16-.19.43-.38.43-.58C228.61,194.36,229,194.16,229.31,194.31Zm2.94-1.08c-.16.28-.57.14-.68.38.39-.1.8,0,1.19-.24C232.27,193.57,232.25,193.32,232.25,193.23Zm.38-.86c-.44.49.19.32.6.21C233.5,192.11,232.75,192.51,232.63,192.37Zm9.73-1.58c-.43.46.42.3.8-.07C242.63,191,242.57,190.82,242.36,190.79Zm-3.48,12.26a.56.56,0,0,1-.34.28c-.22.37.34.36.85,0C238.84,203.53,239.57,202.7,238.88,203.05Zm.6-3.47a3.57,3.57,0,0,0-.52.49c.39-.19.32-.26.57-.29C239.54,199.69,239.66,199.5,239.48,199.58Zm-6.89.88c-.13.3.18.26.5.21C233.47,200.33,232.67,200.59,232.59,200.46Zm7.45,2.68c.2.4.82.27,1.45.33.31-.35.74-1.05.26-.76-.09.28-.71,0-1.09.4-.15-.09.25-.34-.18-.2C240.38,203.06,240.3,203,240,203.14Zm2,1.25c.28-.33-.64.11-.84.32A1.75,1.75,0,0,0,242,204.39Zm-.68-4.71c.23-.26-.3-.2-.35-.38a4.15,4.15,0,0,1-.41.56C240.88,199.86,241.24,199.5,241.32,199.68Zm-1.42,3.87c-.14-.06.2-.52-.42-.18C239.33,203.67,239.77,203.48,239.9,203.55Zm-23.29-4c.13-.17-.19-.06,0-.27l-.71.2c0,.09-.17.25,0,.21a1,1,0,0,1,.45-.18C216.37,199.62,216.36,199.68,216.61,199.59Zm9.18.74c-.16,0-.71.22-.77.4s.28,0,.37,0C225.31,200.55,225.87,200.47,225.79,200.33Zm-12.09,0c.12-.18.2-.34-.26-.2C213.41,200.22,213.44,200.32,213.7,200.29Zm10.22,2.07.57-.21c.23-.22-.35-.11-.52.08C224.14,202.18,224,202.27,223.92,202.36Zm-3.86-2.25-.28.09c-.09,0-.18.06-.18.11.23-.06-.07.09-.09.18.2-.06.31.12.54-.12-.26.08.13-.12-.08-.08C219.69,200.55,219.87,200.18,220.06,200.11Zm-3.45-.05c.7-.18.52-.47.39-.53-.05.18-.33,0-.45.18.38-.06-.19.23-.16.31s.4-.13.39-.06S216.61,200,216.61,200.06Zm28,2.23a7.72,7.72,0,0,0-.85.41c.06-.21-.42-.07,0-.48-.23,0-.27.19-.72.4-.25,0,.35-.43-.18-.19-.13.23-.59.49-.6.72.82-.32.89,0,1.81-.41,0,0,0,.07.13,0C244.15,202.6,244.75,202.42,244.64,202.29Zm-56.35-26.17c-.17.1-.39.16-.53.26.52.06.23-.15.45-.15s-.11.18.22.14C188.49,176.25,188.48,176.16,188.29,176.12Zm61.55,30.21c-.17.24.54-.08.71-.3-.18.09-.07,0,0-.15C250.09,206.21,250.17,206,249.84,206.33Zm-61.4-30.41a6.82,6.82,0,0,0-.85-.19c-.09.22-.1.41.32.45A3.73,3.73,0,0,0,188.44,175.92Zm56.91,16.52a2.69,2.69,0,0,0,.62-.27c0-.09.11-.29-.07-.19C246,192.1,245.3,192.32,245.35,192.44Zm-48.76-12.25c-.18,0-.42,0-.5.11.63-.08.09.37.65.33C197,180.33,196.3,180.49,196.59,180.19ZM242.38,207c-.29.39.37,0,.63-.05C243,206.8,242.71,206.92,242.38,207Zm2.7-.34c.44-.39,0-.26-.3-.18C244.7,206.73,244.79,206.79,245.08,206.69Zm-3-.6c.34-.15,1-.31,1.2-.63C242.78,205.82,242.33,205.85,242.12,206.09Zm3.78-4c-.42.23-.8.44-.8.62.36-.22.28-.05.71-.34Zm.26-3.71a1.5,1.5,0,0,1-.4.18c0,.1-.31.54.18.19A.7.7,0,0,1,246.16,198.39Zm-.95,4c-.53.26.18-.29-.35,0a3.28,3.28,0,0,0-.53.52C244.77,202.46,245.36,202.44,245.21,202.37ZM209,210.78c-.54.15-.08-.15-.51-.06s.11.19-.36.33c-.22,0-.45-.09-.59,0,.28,0,.31.08.26.21C208.61,211.12,208.49,211,209,210.78Zm4.65.91c-.09.31.91.07.84.37a.43.43,0,0,1,.32-.08C215.53,211.31,214.11,211.84,213.61,211.69Zm-.11,0c-.18,0-.11-.06,0-.15-.66.23.14-.26-.52,0-.24.27.65.06-.08.33C213.2,211.69,213.27,211.87,213.5,211.67Zm-2.18,0c-.14.28.73-.07,1.27-.06.18-.22-.73,0,0-.36C211.89,211.35,212,211.61,211.32,211.68Zm4.88.36c-.28.27.58,0,.88-.12S216.52,211.88,216.2,212Zm-7-.58a.64.64,0,0,1,.52-.36c.36,0,.21.23.9.07,0-.28-1.1-.09-1.48-.21.46-.15.55,0,.67-.19a6.24,6.24,0,0,0-.94.19C209.51,211,208.49,211.48,209.17,211.46Zm6.63.58c.08-.1.44-.15.44-.27-.63.26-.57,0-.76.14C215.59,212,215.49,212.1,215.8,212Zm-4.09-12.34q-.12.27.54.12C212.38,199.62,212,199.7,211.71,199.7Zm4.95,13.52c.34-.18.08-.16.4-.41-.76.09-1.22-.07-1.17-.28-.14.12-.34.22-.48.33.57-.07,1-.08.77.28.31,0,.7-.32.64-.17S216,213.41,216.66,213.22Zm35.7-26c-.05.29,0,.44.42.19C253,187.05,252.52,187.25,252.36,187.21Zm-46.73,23.6c.91-.19.42.2,1,.14,0-.17-.31-.21-.45-.33C206.06,210.75,205.83,210.6,205.63,210.81Zm2.05-.35c-.6,0-1,0-1.08-.22-.29,0-.39.13-.67.17.25-.12.29-.18.17-.23-.45,0-.45.15-.71.22,0-.06-.08-.05-.08-.1s.44-.11.44-.22c-.2,0-.33,0-.54,0,0,.21-.25.31-.07.47.58-.11,1.1-.2.78.07C206.9,210.37,206.79,210.81,207.68,210.46Zm38-22.51c-.1.29,0,.34.42.08C246.14,187.83,245.83,188,245.71,188Zm8.25-1c0-.09.21-.22.38-.35,0,0,.1,0,.13-.1a5.73,5.73,0,0,0-.6.27C253.88,186.85,253.8,187.05,254,186.94Zm-36,25.32c.49-.13.56.18,1.15-.16A1.19,1.19,0,0,0,217.93,212.26Zm21.39-5.56c0-.14.69-.3.65-.43a9.5,9.5,0,0,1-1.1.31C238.78,206.81,239.14,206.68,239.32,206.7Zm0-1.83a2,2,0,0,0-.5.35s-.09,0-.15.07c.36-.18.09.12.37,0A.7.7,0,0,0,239.29,204.87Zm-3.91,2.43c.33-.13.51-.27.54-.4-.2.1-.46,0-.58.2C235.56,207.06,235.62,207.13,235.38,207.3Zm-29-8.76c.05-.08.28-.1.35-.17-.24,0-.08-.24-.69-.07-.39.3.51,0,.37.18C206.35,198.49,206.23,198.56,206.39,198.54Zm2.84.8a1.34,1.34,0,0,0-.81-.49c-.42.42.42.34.42.73.61-.15,1.31-.51.63-.45C209.41,199.21,209.4,199.29,209.23,199.34Zm-2.38-.94c0,.1-.24.16-.29.26l.56-.11C207.24,198.4,206.89,198.47,206.85,198.4Zm15.39,13.92c.1-.1.3-.19.31-.3-.36.1-.61.08-.83.31a3.15,3.15,0,0,0,.51-.21C222.2,212.21,222,212.37,222.24,212.32ZM221,213.53c.22,0,.15.31.69-.05C221.5,213.51,221.44,213.24,221,213.53Zm8.59-9c.38-.35.09-.37-.21-.35C229.18,204.39,229.08,204.68,229.6,204.51ZM220.2,212c-.44.2-.21-.18-.59.12.13,0,.25.16,0,.21a1.11,1.11,0,0,0-.8.22,7.8,7.8,0,0,0,.88-.14C219.84,212.26,220.22,212.15,220.2,212Zm3.86.13c-.65.29-.21-.08-.72.13s.25,0-.06.33A2,2,0,0,0,224.06,212.12Zm48.81-27.72a.74.74,0,0,1-.12.32c-.29.24-.3-.24-.48.38-.2,0-.17-.11-.12-.27-.48.42-2.11,1.4-1.53,1.87-.1.28-.42,0-.61.08-.17.48.15.55.51.44-.14.21-1,.76-.78.19-.41.14-.65.69-1.17.52-.09.26.47.09.44.32-.18.47-1.26.48-.79.95-.16.3-.39,0-.28-.18a2.16,2.16,0,0,0-.87.79c-.13-.07-.07-.25-.22-.31s-.38.29-.63.28a.56.56,0,0,0,.22.31,5.64,5.64,0,0,0-2.34,1.09c-.14.31.28-.12.45.11-.21.34-.57.15-.74.62-.7-.12-.41.92-1.12.79.17-.16.35-.25.51-.41-.36-.26-.46.32-.81.05-.21.23,0,.27.19.33-.14.09-.33,0-.43.28-.29-.43-1.79.55-2.52,1a.13.13,0,0,0,0,.11,21.8,21.8,0,0,0-3.26,1.28c-.08.16.21.2.36.28a.39.39,0,0,1-.74-.16c-.59.09.08.45-.47.77-.57,0,.32-.46,0-.55-.8.26-1.67,0-2.4.74-.28-.35-.53-.24-.87-.19a1.14,1.14,0,0,0-.35.29.63.63,0,0,1-.21,0,.31.31,0,0,1-.13.23,2.15,2.15,0,0,0-.79-.06,2.29,2.29,0,0,0-.24.15c0,.21.39,0,.42.21a1.84,1.84,0,0,0-.8.4c.26-.33.21-.32-.25,0,.08-.4-.72.1-1.19.25.23,0,.44-.06.46.17a4.37,4.37,0,0,1-.48.08c0,.11.23,0,.24.12-.43.28-.78.21-.45-.1l-.36,0a1.05,1.05,0,0,1-.05.19c-.44.31-.31,0-.64.22l.52-.4h-.53c-.49.11-1,.22-1.44.31,0,0,0,.07-.11.12l-.76,0-2.29.46-.18.07,0,0-1.05.24c.17-.18.19-.27.13-.29a1.5,1.5,0,0,1-.27.12.1.1,0,0,1-.06-.07,4,4,0,0,0-.8.44,7.21,7.21,0,0,1,.8-.72.36.36,0,0,0-.13-.09,1.28,1.28,0,0,1-.4.15.17.17,0,0,1-.12,0l-.11,0a.51.51,0,0,0-.15.23c-.39.1-.31-.22-.81,0-.53.75-1.19.45-2.33,1-.07-.13.36-.28.61-.42-.51,0-.39.11-1,.29.07-.11.43-.23.47-.34s-.25,0-.52.14a.65.65,0,0,0,.26-.41c0-.21-.61.37-.47,0-.25.14-.36.28-.37.41-.95.21-1.09.41-1.72.21a.84.84,0,0,0-.36.33c-.06-.39-1.08,0-1.3-.29a1.26,1.26,0,0,0-.34.27c-.23,0-.17-.21,0-.48-.35.13-.52.26-.5.39-.5-.17-2.13.51-1.92-.21-.41.14-.34.3-.76.43-.05.13.35-.08.18.14-.41-.13-.58-.54-1.65-.3.29-.28.72-.16.79-.49-.65.24-1.18.43-1.31.32.37-.4.28,0,.66-.16.16-.28-.26-.14-.38-.23a5.9,5.9,0,0,0-.73.62c-.45-.14-.24-.62-1.23-.44-.16.07-.15.16-.34.23s-.26,0-.54.15c.12-.24.24-.24.17-.38a3.21,3.21,0,0,1-.73.32c-.11-.15-.49-.11-.76-.15-.35.13-.13.22.05.14-.74.32-.59-.15-.25-.5-.52.12-.49.3-.57.47-.39,0-.07-.57-.75-.43-.22.06-.31.28-.08.2a1.9,1.9,0,0,1-.94.2c.06,0,.22.12-.23.23,0,.08.42-.09.16.16-.5.17-.36-.06-.73,0,.31-.14.59-.44.15-.32.11-.11.17,0,.43-.14-.06-.13-.25-.19,0-.53-.5.1-.34.31-.8.42.12-.2-.16-.25.24-.51-.57,0-1.35.06-1.49-.1.19-.12.45-.24.43-.4-.67.28-.61.49-1.19.48-.2.23.19.11.27.18-.46.27-.44-.13-.8-.08.13-.09.36-.16.38-.27a2.75,2.75,0,0,0-1,.24c0-.16.34-.26.33-.42s-1.08.4-.68-.06c-.33.08-.36.2-.74.27-.1.16.12.13.3.12-1.68.34-2.12-.41-3.34-.51a1.22,1.22,0,0,0-.48.44c-.31,0-.22-.19-.68-.1.06-.14.33-.24.56-.34-.46-.12-2.15.1-1.46-.63-.55.17-.13.21-.45.36a3.44,3.44,0,0,0-.78-.13c.1-.09.31-.15.39-.24-.17-.18-1.76.17-1.19-.26a7.15,7.15,0,0,1-.87.24c-.05-.1.2-.35-.39-.18.69-.52-1.09-.16-.85-.6-.14.1-.54.11-.63.22-.07-.17,0-.4-.86-.2.13-.14.12-.21,0-.26a2,2,0,0,1-.45.13c.24-.14,0-.23-.2-.07.09-.16-.23-.22-.71-.23.44-.15.34-.21.18-.29s-.18.13-.25.2c-.39,0-.46-.2-.85-.22-.23.26.35.05-.08.32-.24,0-.53,0-.54-.12-.21,0-.22.16-.3.24.19.07,1-.12.65.16-.11-.13-.73.22-.8.07-.46.15-.31.24-.23.34a1.6,1.6,0,0,0,.57-.29c.44,0,.06.19-.09.32a.79.79,0,0,0,.69.1c-.46-.09.29-.35-.12-.39.23-.18.48,0,.53-.24s-.51.26-.41.07.17-.1.63-.2c0,0-.06-.08-.2-.07.54-.07.68.38,1.36.38-.62.2.09.11-.33.31-.21-.09-.4-.19-.36-.39-1.31.49-.1.6-.18.84.82-.07.91-.4,1.58-.53-.56.28.5,0,.16.33a1.2,1.2,0,0,0-1.08.14c.87-.17,0,.23.76.18.48-.06.48-.27.95-.33l-.18.29a1,1,0,0,0-.46.13c0,.36.69.43.92.7-.58.15-.41-.05-.74,0,0,.24.28.51,1.12.2-.2,0-.26-.09-.06-.29s.36,0,.6-.17c.24.14-.2.57.84.24-.24.22.11.14.28.15-.15.07-.18.18-.39.23.69,0,.73.46,1.63.17.19.08.26.22.43.32a2,2,0,0,0,.39-.24c.38-.05-.2.21-.18.29a1.54,1.54,0,0,0,.89-.46c.39,0,.5.16,1.16-.12-.28.2-.84.34-.95.59-.6.06.65-.44-.18-.32-.42.17-.55.3-.49.42.24.2,1.52-.16,1.68.07.64-.23.11-.2.2-.36.43-.1.32.1.37.22a3,3,0,0,1-.46.17c0,.08.4-.07,0,.14.66-.12,0,.45,1.18.06-.37.23,0,.37.55.12-.59.46,0,.56.59.47,0,.09-.19.14-.24.22.58-.11.64.11,1.22-.23l-.23.43c.67-.09.48-.36,1-.49-.12.26.19.26.64.19-.26.18-.33.39-.55.58.5-.18.44-.46,1-.63-.85.51-.1.62.62.45.12.15-.45.46,0,.41.3-.19.46-.44.64-.3a.85.85,0,0,0,.51-.52c.13-.05.13,0,.11,0l.29-.09c-.05.17-.42.3-.47.47s.69-.24,1.26-.35c-.14.24.56,0,.53.14-.72.28-.82.17-.85,0a3.78,3.78,0,0,1-.9.34c.34,0-.09.22.6,0,.08.15-.49.2-.42.35a4.24,4.24,0,0,1,1.63-.1c-.16.15-.62.13-.63,0-.76.42-.12.44.3.38.59-.24-.37-.07.12-.25.74-.24-.09.23.43.13.51-.58.74.19,1.95-.3-.23.25,0,.44-.1.73.74-.51,1,0,.86.23a1.08,1.08,0,0,0,.47-.22c-.18.19.36,0,.22.3.83-.41.41,0,.63.19.29-.12.35-.28.79-.39.26.38,1.06.13,1.52.39.31-.15.37-.31.61-.3-.7.5.11.24.75-.08-.65.37-.65.66-.1.53.53-.3-.37,0,.14-.33.26-.11.27,0,.55-.17-.14.17-.49.31-.26.32s.14-.21.38-.31c.6-.15.46,0,.12.27.14.13.55-.39.73-.3-.46.31-.35.43-.22.53.62-.37.2,0,.85-.3-.38.28,0,.26.3.15s0-.09.37-.33c-.45.41,1.08,0,.11.61.47-.17-.09.41.4.21s.07-.2.33-.53c.36-.1.39,0,.75-.05-1,.83.33.46.35.61.31-.25.15-.35.19-.47a.55.55,0,0,0-.35.27c-.46.14.08-.2-.13-.27a3.1,3.1,0,0,0,1.53-.53c0,.16-.43.31-.54.47,1-.48,1.71,0,2.45-.15,0,0,.17.26-.29.48-.08.3,1-.3.26.26.41-.18.44-.36.68-.55,0-.07-.34.12-.56.21.15-.26.69-.44.45-.54.32,0,.11.18.21.39a3.45,3.45,0,0,1,.46-.28c-.09.24-.34.18-.66.49,0,.13.52-.13.29.2a13.65,13.65,0,0,1-3.31.43c-.44.14-.2.27-.64.4-.23,0,.05-.16.14-.33-.6.26-.56.53-.7.8.54,0,1.92-.61,2-.19.17,0,.71-.26.82-.21-.57.31-.46.27.06.14,0,.14-.35.27-.4.41,1.13-.53.72-.13,1.15-.15s.37-.27.77-.42c-.41.31-.48.51,0,.34s0-.27.52-.42c-.1.15.07.08.24,0a.74.74,0,0,0-.25.34,8.93,8.93,0,0,0,1.92-.61c-.64.61.59-.16.41.19.46-.28-.12-.08.13-.35a1.21,1.21,0,0,0,.76-.11c0,.06-.3.45,0,.27-.53.39-.41.34-.47.64-.38-.06-1.13.41-1.14.12-.63.33-.16.25-.67.5,0-.2.26-.41.6-.63,0-.1-.26,0-.17-.2-.59.47-.7.25-.79.16-.53.31-.07.26-.48.63-.31.06-.16-.06,0-.27a3.83,3.83,0,0,1-1.14.43,1,1,0,0,0,.34-.55,5.87,5.87,0,0,1-1.13.69c.1-.2-.35,0-.48,0a7.55,7.55,0,0,1-.69.47,6.24,6.24,0,0,0-2.13.11c.21-.42-1,.15-.91-.16-1.58.65-1-.44-2.63.37.21-.24-.13-.09,0-.27a6.3,6.3,0,0,1-1,.34c0,.17.59-.07.08.34.39-.34.38-.14.73-.22-.24.27-.37.19-.6.23a.23.23,0,0,0,0,.09,1.19,1.19,0,0,0,.72,0,.1.1,0,0,1,0,.09c.2-.11,0-.19-.21-.12.57-.32.7.06,1.12,0-.49.24-.21-.06-.7.17.67-.05.43.27.82.38.39-.14,0-.32.58-.45l-.12.26c.9-.23,1.22,0,1.25.25.16-.37.59-.25,1-.31-.2.17-.26.33-.51.33-.27.5.85-.25.67.15a3.33,3.33,0,0,0,.88-.6c.31-.1,0,.36-.2.47,0,.17,1.32-.42.7.08a2.16,2.16,0,0,0,.89-.33c-.2.32.37.41,1.3.12-.12-.15-.17-.09.07-.47l1.16-.43c.07.08-.83.5-.39.35-.35.36-.27,0-.37,0-.64.46-.32.76.63.26.46,0-.31.87.71.39,0,.09-.08.19-.11.28.39-.15.35-.28.54-.43.39-.12-.07.43.57.12.47-.28,0-.18.13-.35.46.17.76.43,1.91-.16.18,0,.47-.06.27.26-.3.13-.48.26-.51.37.65-.35.78,0,1.59-.32l.14-.11h0c.08-.17.11-.3-.19-.15a4.18,4.18,0,0,1,1.49-.39c-.15.35-.22,0-.76.4-.09.24.41,0,.28.25h0l.26,0h0c.48-.29.4-.11.88-.41a.5.5,0,0,0-.25.27,13.18,13.18,0,0,1,1.32-.39l.09,0s0,0,0,0a2.23,2.23,0,0,1,.73,0c-.15.17-.32.13-.46.32a.07.07,0,0,0,0,.09c.15,0,.29,0,.35,0a.59.59,0,0,1-.19.14c.52-.2,1-.61,1.54-.75.12.17-.14.18-.26.29-.15.31.42-.16.6.17,0-.21.1-.3.35-.39.59.75,1.47-.67,2.31-.3.19-.19.24-.33.17-.44-.23.1-.52.27-.45.11l.36-.19a.45.45,0,0,0-.17-.08c.21-.34.5-.14.73-.37.11.09-.12.3-.23.46.26.21.47.12.69.09a1.77,1.77,0,0,0,.15-.18c0-.1-.12-.18-.3-.23a1.23,1.23,0,0,0,.43,0A4.87,4.87,0,0,1,253,205c.39-.18.23.16.27.31.5-.37.56-.32.6-.24a2.79,2.79,0,0,1,.37-.14l.07,0c0-.17-.26-.22.09-.5a.59.59,0,0,0,.56.18,3.21,3.21,0,0,0,.94-.34.41.41,0,0,1-.06.11,5.72,5.72,0,0,1,1.61-.51c.12-.44.86-.66.22-.74.37-.25.45-.06.54.17.39-.12.3-.91.89-.82-.12.34-.36.17-.5.4.14,0,.18.08.15.17.89-.44,1.65-1.28,2.69-1.17-.14-.39-.05-.38.14-.91.33.07,0,.48-.07.79.65.33.82-.86,1.44-.64.44-.56-.39-.39-.17-.82.4.07.31.43.51.62.42.06.25-.47.47-.45.05-.17-.22-.14-.37-.2.26-.27.8-.35.71,0,.44-.85.57-.41.82-1.2.65-.09.66-.23,1.16-.78.15.13-.09.52.38.43l-.28.63c-.31.22-.28-.26-.51.34-.21,0-.16-.12-.1-.27-.51.37-2.21,1.22-1.68,1.74-.12.27-.42,0-.61,0-.21.46.11.56.47.48-.15.2-1.06.67-.79.12-.41.11-.7.63-1.21.42-.11.26.47.14.42.36-.22.46-1.3.38-.87.88-.18.29-.38-.06-.27-.2a2.2,2.2,0,0,0-.92.72c-.12-.08-.05-.25-.19-.32s-.41.25-.66.23a.63.63,0,0,0,.19.32,5.72,5.72,0,0,0-2.42.9c-.16.29.3-.09.44.14-.23.33-.58.11-.78.56-.69-.17-.48.89-1.17.7.17-.14.36-.22.53-.36-.33-.3-.48.28-.81,0-.22.22,0,.27.17.34-.16.08-.34,0-.46.24-.26-.44-1.83.41-2.59.78,0,.06,0,.09,0,.11a21.08,21.08,0,0,0-3.35,1c-.09.15.19.21.34.31a.39.39,0,0,1-.73-.22c-.59,0,0,.45-.53.73-.56-.06.36-.44.05-.55-.82.2-1.67-.11-2.46.54-.32-.48-.68-.18-1.21-.27-.35.2-.1.32-.37.51a3.78,3.78,0,0,0-1.89,0c-.15.3.52.14.7.15a1.61,1.61,0,0,1-1.69-.06c-.39.21.08.35-.3.56.27.23.71,0,.7.32a6.66,6.66,0,0,1-3.2-.41c-.57.24.34.44-.13.68a8.7,8.7,0,0,0-3.26.31c-.49-.5-.9-.11-1.22,0-.18-.16.18-.29-.15-.46a1.56,1.56,0,0,1-.9.12.34.34,0,0,1-.22,0l-.2,0a.61.61,0,0,0-.22.06c-.41.28-.05.21-.39.53-.77.35-.26-.15-1,.16.24-.24.45-.1,1-.37a1.76,1.76,0,0,0-.66,0,2.22,2.22,0,0,0,.86-.49l-.24,0a.59.59,0,0,1-.3.14.09.09,0,0,0,0-.16c-.24,0-.41.06-.47.24-.32-.05-.68-.07-1-.09a2.12,2.12,0,0,0-.64.31c.17-.22-.13-.16.1-.33h-.08c-.43.16-.56.33-1,.48.4,0,.32.23.83.12a2.25,2.25,0,0,1-1.59.1c-.31.11-.29.25-.7.35,0-.21.1-.44-.82-.14.46-.31.13-.29.83-.61-.59.24-.2-.17-.92.06.87-.42-.22-.23.27-.52-.73.14-.32.38-.92.52.2-.25,0-.28-.27-.22a7.19,7.19,0,0,0-.61.41c.38.22,1.36.05,1.34.4-.51.21-.07-.16-.72.14.3-.74-2.21.2-2.11-.43-1.75.47-2.11-.31-3.52.21-.32,0-.56,0-.92,0,.62-.42-.33-.2-.45-.35a1.76,1.76,0,0,1-.55.26c.49-.28.09-.36-.32-.13-.06-.42-1.58-.09-1.87-.4.47-.11.32-.26.35-.35-.33.1-.21.28-.5.39-1,.14-1-.29-1.46-.43-.73.37-1.43.25-1.06,0-.48.15-.35,0-.74.11.79-.58-1.94-.12-1.67-.72-1.6.37-.74-.68-2.24-.28.28,0,.3.11.42.17-.67.21-.47-.28-1.15-.3-.28,0-1.53.07-.95-.19.11-.13-.54.07-.74.08,0-.28-.75-.25-.7-.55a9,9,0,0,1-2.49-.55C181.14,203,168,191.18,159,178.84a.74.74,0,0,0-.6,0c1.37,1,1,1.87,2.37,2.81-.31.06-.22.11-.21.25.21,0,0-.06.17-.1.35.14-.2.28.42.43-.14.11-.51,0-.66.07,1.24.41,1.51,1,1.48,1.53.52.41,1.19.81,1.06,1.22a.53.53,0,0,0,.31,0c.06.64,1.61,1.5,1.28,1.92.35.09.36,0,.53.13-.09,0-.29,0-.45-.06,1.42.77.86,1.45,2.49,2.21-.55.11.46.47.67.65s-.05.58.62.69c-.1.3.18.57,1,.8,0,.16-.48,0-.48.11-.19.05.55.19.54.1-.29.22.37.36.29.56a.41.41,0,0,0,.38,0c-.23.27.39.47.4.73.76,0,.1,0,.64.15-.25,0-.38.13-.27.21a2.82,2.82,0,0,1,.61.05c-.54.23.85.44.45.83a1,1,0,0,0,.53,0c.25.4,1.59,1.24,1.25,1.39.15.21,1,.3.61.59.7.11,1.4.37,1,.52,2,1.1,2.93,2.21,5.06,3.27,0,.08-.23.07-.3.13.43,0,.37.09.92.16.31.72,2.83,1.28,3,2.14.26,0,.37-.05.64,0a2.68,2.68,0,0,0,1.2.77c-.3.06-1.28.2-1.09.49.53,0,.66-.14,1.1,0,.38,0,.45-.31,0-.26.3-.2,1,0,.5.11,1.37.13.91.73,2.33.84-.55.25.09.41,1,.38,0,.09-.2.1-.39.11.9.19,1.22.53,2.16.69-.11.07-.34.09-.44.17,1.17.28,1.62,1,3.2,1a.8.8,0,0,1-.35.07,13,13,0,0,0,3.3,1c.24.42,1.8.7,2.75,1,0,.16-.51.15-.53.31s0,.09.22.08c.9-.48,1.19.05,1.8,0-.44.23-.35-.05-.73,0-.53.12-.06.2-.07.26,1.67-.36,1.61.18,2.69.15,0,.16-.51.17-.53.33s.28,0,.23.07c.22-.05.24-.16.33-.25.43-.06.59,0,.41.19s-.59.1-.6.24c-.32,0-.08-.13-.54,0-.23.22.52.06.16.34a1.35,1.35,0,0,1,1,0c.55-.18-.48-.07-.21-.27,1-.16.1-.15.22-.29,1.26-.12.39.19,1.42.14-.1.11-.55.12-.71.21s.16,0,.27,0a.63.63,0,0,1-.51.13c-.29.31.22.31-.05.61a1.65,1.65,0,0,0,.83-.17c.24.07-.34.48.25.41.33,0,.22-.21.37-.31.47-.06.12.2-.21.29-.14.18.75-.07.62.1.27-.07.27-.2.72-.22-.51.39.19.72,1,.39.19.09.79,0,.45.32,1.13-.27.64.27,1.54,0-.9.62,1.71,0,1.29.5.75,0,.93.25,1.78.18.45-.1-.27-.07.4-.19-.15.63,1.94.15,2.19.57-.29.07-.29,0-.6.09s-.19.15-.4.2c.45,0,1.29-.15,1.68-.1-.18.14-.29.08-.48.12-.47.16.36,0,0,.27a1.16,1.16,0,0,1,.64-.16c-.83.63,1.35,0,1.05.45q.74-.15.81-.42c.52-.16.31.06.68,0a2.48,2.48,0,0,1-.68.24c-.26.25,0,.21.09.29.29-.09.43-.21.48-.34,0,.27.81.15,1.18.24.27-.09.26-.23.72-.31-.79.61,1.23.39,1.18.7.63-.25,1-.12,1-.42.37,0,.12.13-.19.32.19.08,1.27-.5,1.17-.2-.46.18-.25,0-.56.07,0,.07-.1.12-.24.18.65.05,1.84-.22,1.66.31a6.06,6.06,0,0,1,1.24-.56c-.11.2-.66.35-1.08.51-.48.52,1.15-.22.8.22.75-.19.57-.45,1.15-.65-.13.24-.62.44-.9.67-.12.24.63-.21.57-.09.24-.09.23-.21.31-.31.36-.07.41.14-.06.33,1.11-.37.5,0,1.55-.42,0,.27.21.18.88.05-.21.17-.7.32-.66.51l-.82.28c-.24,0,.41-.33-.38,0,0-.09.2-.17.4-.24a3,3,0,0,0-2.18.36c-.35.13.06-.2,0-.27-.62.22-.79.43-.71.55-.26.06-.84,0-.1-.29-.12-.11-.83.11-.51-.25-.35.12-.21.29-.52.42-.62.21-.47-.31-1.19.21-.39.11.1-.21.28-.25a2.19,2.19,0,0,0-1,.09c.11-.1.35-.19.44-.29s-.36,0-.33-.11a2.24,2.24,0,0,0-.44.29c-.13-.3-.7-.35-1.41-.33-.42.13.16,0-.15.25-.47.13-.21-.14-.86.08.17-.35-1.28.4-1.11,0,.22,0,.36,0,.57-.05.37-.3-.45,0-.08-.29a.56.56,0,0,0-.45.28c-.14,0-.07-.1-.41,0,.6-.37-.87-.34-1.55-.33a.5.5,0,0,0-.16.07,8,8,0,0,0-2.28-.32c-.23.06-.23.18-.32.27-.78.19-.26-.18.08-.32-.24-.13-.6.28-1.18.3-.09-.17.72-.17.78-.32-.54-.09-.41-.48-1.61-.27.54-.37,0-.26-.11-.44-.42.05-.47.17-.85.23.07-.29-.42-.32-.82-.41-.47.15,0,.19.11.24-.66.12-.82-.12-.7-.38-.46.05-.43.22-.89.27-.18.18.35.13-.1.32-.78-.17-1-.42-1.07-.83-.63,0-.4.31-1,.36a4.9,4.9,0,0,0-2.27-.36c.37-.36-.41-.2-.7-.21.09-.11.5-.13.5-.27-1.13.12-1.05-.62-2.07-.29-.6-.26-2.21-.38-2.13-.77-.94.08-.67-.26-1.79-.12.34-.29-.42-.2,0-.51-.41,0-.48.12-.84.13a20.49,20.49,0,0,0-4.28-1.39c.19-.07.3-.17.45-.16a7.37,7.37,0,0,1-3.21-1.26c0-.17-1-.09-1.16-.23.09-.05.35,0,.41-.1-.52-.09-1.18-.22-1.16-.54h-.93c-.51-.65-2-1.08-3.27-1.57.07,0,.21,0,.26-.09-2.24-.86-3.53-1.95-5.49-2.93.37-.26-1.37-.88-2.07-1.36-.38-.25-.3-.5-1.1-.62l.22-.18c-.93,0-.33-.43-1.34-.56-.06-.61-2-1.28-2.3-2l-.58-.09c-.43-.9-2.38-1.68-2.71-2.61-1.09-.34-.58-.79-1.65-1.14.31-.26-.66-.45-.44-.71a5.21,5.21,0,0,1-2.11-2c-1.8-1.46-2.6-3-4.26-4.5l.23-.15c0-.06-.23-.07-.32,0-.45-.8-1.05-1.4-1.44-2.23l-.52-.16c-.08-.16.64,0,.09-.29-.21,0,0,.06-.17.1s-.26-.27,0-.25c-.69-.88-1.66-2.13-2.72-3.69a68.69,68.69,0,0,1-8.16-16.94,136.51,136.51,0,0,1-5.67-22c-.35-1.86-.59-3.29-.85-4.9-.94-5.61-1.66-11-4.53-30.14-1.7-11.36-3.43-22.45-5.44-33.36s-4.69-21.54-9.07-31.54a75.5,75.5,0,0,0-8.15-14.15,63.8,63.8,0,0,0-11.29-12.13A78.36,78.36,0,0,0,71.09,0a86.54,86.54,0,0,1,34.39,9.39,88.14,88.14,0,0,1,28.31,24,139.83,139.83,0,0,1,18.94,32.13c4.94,11.29,8.39,22.91,11.45,34.34l5.56,22.56c1.4,5.68,2.63,11.41,3.85,17.13A100.51,100.51,0,0,0,181.68,163c.7,1.43,1.43,2.8,2.16,4.14,0,0-.19.16-.15.29.22,0,0-.06.14-.14.38.06-.12.33.51.33-.11.14-.5.09-.63.21,1.3.13,1.71.66,1.8,1.16.6.28,1.33.52,1.3.95a.52.52,0,0,0,.31,0c.2.61,1.92,1.1,1.69,1.59.36,0,.35-.09.54,0-.08.06-.29,0-.45.05,1.55.42,1.17,1.21,2.93,1.58-.51.23.55.35.8.48.4.23.08.58.76.53,0,.32.3.52,1.14.55,0,.17-.48.07-.45.23-.17.09.58.05.55,0-.23.28.44.26.41.48a.39.39,0,0,0,.36-.12c-.16.32.49.37.56.62.73-.21.1,0,.66,0-.24.08-.34.21-.22.26a3,3,0,0,1,.61-.09c-.48.35.92.24.63.71a1.07,1.07,0,0,0,.5-.14c.34.33,1.84.85,1.54,1.07.19.16,1.09.05.72.43.71-.05,1.45,0,1.1.28,2.16.63,3.36,1.49,5.67,2,0,.08-.21.12-.27.19.43-.06.39,0,.94,0,.46.63,3,.6,3.41,1.39.26,0,.36-.13.62-.18a2.7,2.7,0,0,0,1.35.48c-.29.13-1.21.49-1,.72.52-.14.61-.28,1.07-.28s.36-.4-.11-.23c.24-.27,1-.23.51,0,1.37-.18,1.05.51,2.46.29-.48.37.18.37,1,.15,0,.09-.18.14-.36.2.92,0,1.31.23,2.26.17-.09.1-.31.17-.39.27,1.2,0,1.81.61,3.34.24,0,.06-.21.1-.33.15a13.89,13.89,0,0,0,3.45.23c.32.35,1.91.27,2.9.33,0,.15-.46.26-.45.42s.07.07.23,0c.77-.66,1.18-.22,1.77-.37-.38.33-.35,0-.71.21s0,.2,0,.27c1.54-.74,1.6-.19,2.65-.47,0,.16-.46.29-.44.44s.27-.07.23,0c.21-.1.2-.21.27-.32.41-.15.58-.13.44.1s-.55.23-.53.36c-.29.12-.1-.1-.53.1-.17.27.52-.06.24.29.72-.35.66-.16.95-.21.49-.3-.49,0-.27-.22,1-.38.06-.17.14-.32,1.21-.41.43.09,1.42-.19-.07.13-.51.24-.64.37s.15,0,.26-.06a.61.61,0,0,1-.47.24c-.2.37.29.26.1.62a1.69,1.69,0,0,0,.76-.37c.26,0-.22.55.34.35.32-.12.17-.26.29-.39.44-.16.16.17-.14.33-.09.21.72-.24.63,0,.24-.12.21-.26.65-.38-.41.5.34.66,1,.16.21,0,.78-.18.52.22,1-.53.68.11,1.48-.39-.73.81,1.67-.42,1.37.2a15.26,15.26,0,0,0,1.78-.23c.41-.2-.28,0,.34-.27,0,.64,1.93-.3,2.27,0-.27.14-.28.07-.56.22s-.16.19-.35.29c.45-.08,1.23-.44,1.62-.48-.15.18-.27.15-.44.22-.42.27.34-.07,0,.27a1.26,1.26,0,0,1,.59-.3c-.66.81,1.31-.34,1.13.2.45-.21.68-.4.69-.58.47-.28.32,0,.66-.19a2.58,2.58,0,0,1-.61.39c-.2.3.06.2.15.26.26-.16.38-.3.39-.44.1.25.83,0,1.21,0,.24-.16.2-.29.63-.47-.64.77,1.29.1,1.3.42.56-.4.94-.35.92-.65.36-.11.15.1-.11.36.2,0,1.13-.79,1.1-.47-.41.28-.25,0-.54.2,0,.06-.07.14-.19.22.65-.09,1.74-.62,1.69-.07a6.16,6.16,0,0,1,1.08-.83c-.06.22-.56.49-.93.75-.36.61,1.06-.48.82,0,.69-.34.46-.56,1-.89-.07.26-.5.58-.72.86-.06.26.57-.35.54-.22.21-.14.17-.25.23-.37.33-.15.43,0,0,.34,1-.61.48-.12,1.4-.77.08.26.25.13.88-.14-.17.21-.62.47-.54.64l-.72.46c-.24,0,.32-.41-.38.06,0-.09.16-.21.33-.33a3,3,0,0,0-2,.85c-.32.2,0-.22,0-.27-.56.35-.67.6-.57.69-.24.12-.82.15-.16-.25-.14-.09-.78.29-.56-.14-.31.2-.14.34-.4.53-.56.35-.53-.19-1.11.47-.36.2,0-.21.21-.29a2,2,0,0,0-.94.3c.09-.12.3-.26.37-.38s-.35.09-.35,0a2.48,2.48,0,0,0-.36.38c-.19-.26-.76-.18-1.44,0-.39.23.16,0-.1.28-.43.23-.23-.09-.82.27.09-.38-1.15.68-1.07.29.21-.08.34-.1.55-.18.29-.38-.44.12-.15-.26-.31.14-.32.25-.37.37s-.1-.08-.4.1c.5-.5-.92-.14-1.59,0l-.14.1a8.25,8.25,0,0,0-2.29.2c-.21.12-.19.24-.25.35-.71.36-.29-.12,0-.34-.27-.07-.53.42-1.08.57-.14-.15.66-.33.68-.49-.54,0-.51-.38-1.63.1.45-.48-.07-.26-.2-.4-.4.14-.43.27-.78.41,0-.29-.49-.22-.89-.21-.43.26.09.18.16.21-.62.27-.82.07-.77-.21-.44.15-.37.31-.81.46-.13.22.37.05,0,.34-.8,0-1.06-.19-1.23-.57-.61.18-.32.39-.87.58a5,5,0,0,0-2.3.16c.28-.43-.44-.1-.73,0,.07-.13.46-.24.43-.37-1.07.37-1.16-.37-2.08.19-.64-.12-2.23.13-2.24-.27-.9.29-.72-.1-1.78.29.27-.36-.46-.1-.13-.49-.4.09-.44.22-.79.31a20.55,20.55,0,0,0-4.48-.38c.17-.11.25-.23.4-.25a7.56,7.56,0,0,1-3.41-.5c0-.17-1,.13-1.18,0,.08-.08.33-.12.38-.2-.54,0-1.2.06-1.26-.26l-.91.21c-.64-.51-2.13-.61-3.53-.78.06-.06.19-.09.23-.15a29.88,29.88,0,0,1-4.95-1.31c-.09,0-.17.07-.18.13-.24,0,0-.2-.24-.16a.43.43,0,0,1,.14,0c-.26-.08-.51-.16-.79-.22.17-.19-.31-.34-.9-.48a.11.11,0,0,1,0,0c-.22.05-.21,0-.44,0a.53.53,0,0,1,.22-.15c-.43-.1-.88-.2-1.19-.31l-.13-.07H203l.05,0a1.24,1.24,0,0,0-1-.26l.17-.22c-.5.1-.58,0-.71-.12a.26.26,0,0,0-.17,0c-.38.12-.35.33-.59.65.62-.12.26-.29.58-.45.51,0,.14.09.17.28a3.16,3.16,0,0,0-.58.25c0,.1.44,0,.23.16-.49.08,0-.32-.79-.12.1-.25.16-.48-.11-.54s.06.14.1.18c-.16.14-.4.07-.28,0-1.31.64,1.08.63,1.26,1.14a.74.74,0,0,0-.4.11c-.33.07,0-.2-.38-.09-.25.09-.19.38.28.26-.46.14-.58.53,0,.41.13,0,.07-.27-.2-.22.52-.2.36-.26.72-.47.36,0,.42-.09.8-.09-.13-.22-.62-.14-.41-.59.54-.1.34-.19.86-.2-.26.12-.68.18-.67.42.28.13.73.16.88.35a1,1,0,0,0-.55.2,1.2,1.2,0,0,1-.47-.12.33.33,0,0,0-.19.34.33.33,0,0,0,.3-.15c.46,0-.37.24.05.29.25-.1.37-.26.64-.36-.27.42.9.36.64.8.24-.07.31-.2.67-.23,0,.16.35.11.11.39a2.34,2.34,0,0,0-.65.17c0,.18.38.18.33.4.41-.12.74-.52.1-.38.33-.08.4-.26.73-.35-.36.36.06.32.08.65-.42.13-.06-.15-.39-.07s.2.13,0,.35c.22,0,.3-.12.52-.15-.74.48.55.18.39.48.71-.26.07-.34.41-.54.11,0,0,.05,0,.09.36,0,.2-.21.55-.22-.07.18.43.13-.06.32-.18.24.46,0,.46.15.24-.09.45-.28.12-.23.57-.28.16.44.95,0l-.18.35a3.53,3.53,0,0,0-.52.17c0,.17.29,0,.59-.08-.34.44.53.21,1.3.21-.16.34,1.07.16,1.16.48-.36.22-.29,0-.56,0-.34.26.21.35.45.4.46-.2-.3-.08.15-.29a2.68,2.68,0,0,0,.74-.2c0,.13-.31.47-.44.69.1.13.57-.19.87-.23s0,.38.5.07c-.05.36.43.39.88.43s.28-.33.73-.42c.05.21-.54.27-.54.47s.63-.18,1-.29c0,.13.32,0,.39.09a1.83,1.83,0,0,1,.79-.35c-.1.08-.26.23-.08.18-.1.17-.17,0-.49.16-.14.21.23.07.39.09a.47.47,0,0,1-.47.09c-.2.11-.32.24-.49.35.17.06.46-.12.14.17.56-.17.22-.18.49-.35s0,.16-.14.3c.1.14.52.07.69.16.24-.15.31-.33.53-.49s1.14-.38,1.14-.15a2.67,2.67,0,0,1,1.44-.39,2,2,0,0,0-.75.26c-.06.18.19.13.37.14-.05.12-.37.19-.34.33-.16-.06-.94.14-.6-.12-.2.12-.43.22-.48.37.13.06.55-.26.27.12.38,0,.18-.23.55-.28-.49.3-.21.34.23.24a.42.42,0,0,1-.5.17c-.07.11.09.08,0,.2.23-.11.7-.17.78-.31s0,.37.42,0c.3-.06-.42.52,0,.41.18-.08.17-.19.22-.29.3,0,1.18-.2.81.14,0,.06.5,0,.5-.18.38.12.48.57-.27,1.22.09,0,.29,0,.28.12.45-.15.33-.39.86-.53.06-.25-.15-.11-.41-.06,0-.22.22-.41.65-.57,0,.07-.17.11-.28.16s0,.28.39.13-.14-.05.09-.25c.45-.21.07.19.56-.05-.64.55.43.26,1.17,0a1.13,1.13,0,0,1-.87.61c.47-.28.12-.21-.16-.16s-.06.12.08.08c-.43.24-.7,0-1.1,0,.29.52,1.95.41,2.64.77.15-.07.15-.16.19-.24.25-.06.45-.09.27.17.56-.36.27,0,.71-.19s0-.3.47-.41c-.3.4.09.19.61.13-.23.31-.28.53.47.18-.16.29.25.11.08.4,1.59-.77,1.81-.06,3.28-.41-.35.27-.38.51.17.14,0,.15-.19.3-.36.44,0,0,.08.07.22,0s.48-.37.5-.57c.6-.23-.54.53.28.15-.44.45-.16.3.11.34a.58.58,0,0,0,.36-.45c.1.37,1.24.1.7.89.09.15.34-.06.58-.12s.31-.39.72-.58c0,.18-.24.35-.48.52.35-.06,0,.15.14.27.55-.34.7-.79.45-.78.22-.1.27-.2.14-.13.79-.37,1.75-.78,1.54-.06.39-.18.13-.35.57-.53-.21.38.78,0,1.09,0,0,.12-.19.23-.19.34.14-.11.17-.22.41-.34s0,.09-.07.27c.14-.09.12-.18.29-.28.53-.28.52,0,.15.27.15-.1.22-.11.23-.08s.14-.18.18-.27c.53,0,1.85-.57,1.64-.06.89-.41.24.11.81-.18-.28.54,0,.44,0,.73-.32.2-.37.12-.61.23-.08.24.46-.14.43,0,.15-.1.14-.19.18-.28.38,0,1-.36,1.41-.42.15-.1.13-.19.17-.28.19-.05.46-.16.43,0-.6.78,1.58-.41,1.63.06-.77.18-1.48.29-2.31.53,0,.16.42,0,.67-.05-.25.33-.37.1-.6.24,0,.14-.06.27-.1.41.23-.13.29-.24.53-.37.28.15-.41.83.44.5.3-.26-.07-.28,0-.47s.48-.35.55-.51c0,.09-.59,1,.21.58.22-.15.31-.29.31-.43.48-.28-.17.6.36.37s.22-.38.68-.6c0,0-.06.09-.14.14-.21.21.26,0-.2.43.16-.08.63-.21.18.18.19-.07.15.1.47-.12s.14-.5.49-.79a.8.8,0,0,1,.16.32c.3-.17.3-.3.64-.48a3.6,3.6,0,0,0,1-.13c.28-.2-.13-.06.07-.35.64-.29-.22.76.75.1.05.06-.21.46.07.27-.07.2-.2,0-.51.34,0,.07,0,.13,0,.2.61-.34.67-.08,1.3-.45.37-.41-.05-.38-.55,0,0-.17,0-.28-.18-.24.16,0,1.11-.64.91-.14.44-.27.35-.46.79-.73-.27.53.44.37.95.31.38-.31-.1-.06,0-.28.24,0,.36-.29.75-.54.1.19.59-.09.64.16.84-.59.33,0,.49.45-.21,0-.29-.15-.67.06,0-.09.11-.2.27-.32-.06-.1-.21-.07-.46.08s0,.18.09.12c-.29.28-1.49,1.1-1.33.65a1.45,1.45,0,0,1-1.4.43c-.34.24-.45.42-.36.12-1.05.6-1.74.78-2.12.63-.5.52-.72.18-1,.66.06-.15-.15-.11-.3-.17.23-.16.26-.09.5-.26-.05-.06-.15,0-.2-.11a.74.74,0,0,0-.3.37c-.37.26-.36.09-.74.35,0-.09.15-.2.18-.29-.34.23-.65.42-.47.11-.2.13-.5.34-.5.25-.3.17,0,.27-.43.45.34-.56-.89-.22-1.49.18-.37.19.16-.21.07-.27s-.12,0-.1-.06c-.38.18-.41.34-.79.52.1-.43-1,0-1.7.16.14-.26-.07-.17,0-.33.61-.32,0,.24.43,0,.1-.21.07-.15.57-.49.11-.44-.46-.18-.93.18-.12.25.63-.34.45,0a1.31,1.31,0,0,0-.83.64c-.35,0-.92.22-1.28.24-.31.38-.19.23-.67.42.09.08.39,0,.86-.29-.05.13-.45.28-.45.41-.1-.09-.52.12-.69.08.06-.18.47-.36.82-.55-.21-.09-.75.13-.73-.18a8,8,0,0,0,.59-.55c-.22-.09-.39.36-.79.49-.2.13,0,.05-.06.2-.83.47-1.23.17-2.18.67,0-.42-.73-.14-1.18-.15-.54.33,0,.3-.42.66-.64.25.1-.44-.73.18a2.69,2.69,0,0,1,.76-.65c-.2-.16-.66-.1-1.23,0,.48-.49-.12-.32-.46-.28-.15.08-.15.17-.19.26s.31-.1.5-.18c0,.06-.07.13-.17.19l0,.13c-.39.15-.14-.23-.83.16-.07.18.24,0,.31.08-.35.34-.52.15-.74.23-.3.55-.54.07-1.1.27.27-.2.64-.55.42-.58-.24.33-.53.31-1,.67.05-.09,0-.11-.09-.08.54-.33.12-.31.45-.63-.2,0-1.11.35-1,0-.4.15-.43.32-.62.48a10.56,10.56,0,0,0-1.22.28l.09-.25.53-.22c-.24.36.46,0,.67,0,.08-.28-.66.07-.6-.19-.94.72-1,.25-1.87.54.26-.06.19.12.56,0a.8.8,0,0,1-.83.11,6.1,6.1,0,0,0,.52-.47c-.17-.12-.55.28-.82.37.1-.13,0-.08-.21,0,.49-.36.24-.39-.53-.07.68-.35.1-.13.31-.49-.74.28,0,.33-.79.57.5-.43.14-.35.36-.62-.63.23-.07.3-.41.47-.26,0-.31,0-.08-.34-.58.21,0,.16-.37.35-1,.33-.5-.16-.74-.37a6.57,6.57,0,0,1-.82.34c.14-.29-.43-.08-.44-.27-.28.13-.38.29-.64.43-.08.11.08.06.05.14.34-.08.32-.21.48-.32.24.11,0,.31.55.29-.35,0-.86.2-.92,0-.41.12.26.07-.22.23a6.61,6.61,0,0,1,.9,0c-.06.08-.28.14-.32.22s.37-.2.67-.23c-.06.11,0,.13.18.1-1,.68.74-.08.4.39.4-.12.44-.34.69-.3-.17.24-.69.43-.86.68-.38.14-.23-.08-.58,0,0-.08.26-.14.43-.2.1-.22-.3-.1-.54-.08-.32.19,0,.12-.27.35.16.08.5,0,.48.21.41-.11.45-.33.7-.29-.85.86,1.17.45,1.79.58.26-.14.22-.33.54-.47a15.61,15.61,0,0,1-1.93,0c.44-.16.58-.08.72-.36a1.12,1.12,0,0,0,.38.18c.25-.14.27-.32.74-.44-.29.35-.09.25.25.23s.32-.27.71-.38.69.22.6.47c.13-.1.39-.19.45-.29s-.42.3-.21,0c.63-.2.68,0,1.29-.15-.06.15-.12.31-.17.46a7.73,7.73,0,0,1,1-.45c-.31.42-.66.38-1,.57-.08.24.94-.37.68,0,.57-.22.41-.5,1.05-.72,0,.07-.18.12-.29.18.14.25.81.08,1.34,0a1.25,1.25,0,0,1-1,.46c.05.13-.5.73.05.47.4-.22-.13-.08.23-.31s0,.16.49-.1c-.18.24-.43.32-.28.45a1.73,1.73,0,0,0,.24-.13l0,0,0,0a.46.46,0,0,0,.23-.23c.62-.24-.37.51.24.28.32-.18.17-.39.64-.57,0,.16-.22.3-.27.45s.08.07.22,0c.27-.21,0-.22.41-.52.24,0,.43-.15,1-.42.8-.21.95.13,1.29.17.24-.47,1.21-.24,1.82-.44.39-.35-.58,0-.34-.33.83-.33.43.37,1.25-.07-.05.09-.26.18-.42.27-.22.32.27,0,.14.27,1.18-.67,1,0,1.85-.56.16.3.89-.08.79.38-.24,0-.17.1-.53.28.12.43,1.16-.35,1.83-.93-.16.28-.58.56-.8.84a5.15,5.15,0,0,0,1-.25c.27-.17-.06-.15,0-.29.13,0,1.15-.32,1.18-.23.21-.08.61-.47.3-.29.37-.34.23,0,.34,0s-.25.19-.41.29c.44,0,2.06-.92,2.27-.56l.66-.4c0,.14.33-.13.19.12,1.28-.84,1-.1,2.23-.91.14.33.94,0,1.91-.59-.09-.2,0-.37,0-.54.55-.06.64.4,1.37-.13-.62.67-.49.92-1.34,1.69.37-.13.85-.38,1.23-.52-.67.7-1.29.41-2.06,1.24-.05.16.46-.27.64-.36-.41.48.45,0,.26.37a3.22,3.22,0,0,1,1-.82c-.37.39-.27.45-.24.65.46-.32,1.16-.77.74-.31.41-.25.54-.5.79-.53.39-.33.16-.21.18-.38.31-.1.64-.23.69,0,.44-.31.26-.51.71-.81,0,.1-.5.74.05.33a1.29,1.29,0,0,1-.55.58c.16.12.18.06-.1.49-.12.26.63-.48.5-.22s-.43.35-.67.52c.1.05.46-.21.48-.08.31-.23.14-.39.57-.64-.24.34.28.08.36-.14-.21.58.67.17,1.69-.53-.15.19-.17.36-.32.55a4.37,4.37,0,0,0-.78.56c0-.11.21-.27.41-.42a8.56,8.56,0,0,0-2,.84c.16.22,1.15-.51,1.32-.3a6.53,6.53,0,0,0-1,.52c.06.15.68-.32.41.2.32-.24.3-.41.7-.67,0,.13.14,0,.08.19.28-.17.27-.28.3-.4.26-.19.14.07.5-.24-.35.47.28.1-.1.57.56-.34.47-.55.95-.88,0,.21.84-.21,1.12-.51.11.23.55-.3.71-.16.4-.34-.1-.06,0-.29.64-.44.67-.14,1.22-.49a2.2,2.2,0,0,1-.45.73c.27-.13.52-.06.18.38.4-.24.13-.31.54-.55s.18.13.61-.22c0,.17-.28.42-.06.37.43-.34.19-.52.46-.82.07-.22-.73.64-.48.19s.8-.48.84-.28c.36-.23.35-.37.65-.59.06.23.39.42.81,0,.18-.12,0,.12-.15.25.17,0,.3.06.87-.45-.12.3.19,0,.07.33,0-.22-1,.76-.84.31-.53.49-.42.6-1.06,1-.13.51.49-.16.61-.23-.11.37-.49.38-.8.77q.15-.37-.36.09c.11-.29-.22,0,.05-.36s.33-.06.65-.52c0-.12-.57.44-.49.2-.38.36-.2.41-.67.66.61-.63-.28.08-.48.12s-.34.41-.29.43c-.28.16-.92.62-1,.5-.85.78-.8.38-1.58,1.1-.17-.09.18-.46-.16-.38-.18.15-.14.26-.18.39-.73.58-.71.31-1.15.57a.68.68,0,0,1,.41-.36c.2-.38-.42.08-.05-.33-.08.08-.55.54-.53.38-.4.33-.17.21-.19.38-.59.35-.54,0-1.41.66.68-.84-.8.47-.42-.2-.35.43-.42.29-.69.5a1.51,1.51,0,0,0,.28.05,2.13,2.13,0,0,0,.47-.29c-.43.65.64,0,1.37-.44a1.72,1.72,0,0,0-.33.48l.45-.2s-.12,0,0-.16c.31-.15.65-.33.6-.06a2.41,2.41,0,0,1,1-.16c-.13.18-.3.15-.43.35s.16.17.05.3c.56-.22,1.06-.75,1.61-.94.13.15-.13.19-.24.31-.12.32.41-.19.61.12,0-.2.08-.31.32-.42.65.7,1.41-.78,2.28-.48.29-.32.24-.52-.13-.59.18-.36.48-.18.69-.43.12.09-.1.31-.19.48.32.22.54,0,.8,0,.1-.2,0-.31-.29-.37.71,0,1.28-.49,1.91-.72.06-.2-.28-.21.06-.52.57.61,2.31-.82,3-.8.09-.46.81-.74.16-.76.35-.28.44-.1.55.12.38-.15.23-.93.82-.88-.08.34-.34.19-.46.43.14,0,.18.07.16.17.85-.52,1.54-1.42,2.59-1.39-.17-.38-.08-.37.06-.92.34.05.08.48,0,.79.67.28.75-.92,1.38-.74.4-.61-.41-.37-.23-.82.4,0,.34.41.56.59.42,0,.21-.5.43-.49,0-.17-.23-.13-.39-.17.25-.29.77-.42.72-.06.36-.88.53-.46.71-1.27.64-.13.65-.27,1.1-.86A.92.92,0,0,1,272.87,184.4Zm-15.18,6c.06-.13.21-.29.18-.39-.25.2-.28.14-.51.33C257.3,190.57,257.28,190.75,257.69,190.4Zm-1.69.53c.59-.62.2,0,.62-.28C257.12,190.09,256,190.53,256,190.93Zm-2.27,1.17c.39-.27.5-.59.8-.65.11-.51-.84.53-1.26.67C253.12,192.46,254,191.67,253.73,192.1ZM250.12,188c.33-.13.08.1.57-.11.14-.24.2-.42.07-.42-.19.33-.37.2-.11,0A1.7,1.7,0,0,0,250.12,188Zm-4.41,1.05a1.65,1.65,0,0,0,.95-.32C246.42,188.83,246.08,188.71,245.71,189.09Zm-1.2.48c.23-.13.66-.21.88-.5C245.39,189,244.69,189.31,244.51,189.57Zm-4.62.93c0,.23-.06.43.25.31C240.19,190.58,240.37,190.21,239.89,190.5Zm.24-1c.2.09-.12.39-.27.68.45-.36.42-.21.87-.45C240.42,189.66,240.91,188.89,240.13,189.48Zm-.88.45c0,.17.18.1.31.12.13-.23.5-.48.6-.71C239.73,189.55,239.65,189.73,239.25,189.93Zm-.84.31a1.48,1.48,0,0,0,.72-.24C239.37,189.64,238.48,190.12,238.41,190.24Zm-.38.62c0,.17.14.2.41.11.07-.14-.27-.13.11-.4s.41.07.73-.31a1.12,1.12,0,0,0-.83.24C238.44,190.62,238.29,190.73,238,190.86Zm-2.29-.07c.21-.09-.05.1-.05.2.3-.07.75-.47.7-.15-.23.23-.51.17-.68.48a1.66,1.66,0,0,0,.88-.42C236.71,190.52,236.31,190.37,235.74,190.79Zm-.12-1.2c.15.12.6-.05.9-.08C236.4,189.37,236.2,189.3,235.62,189.59Zm-1,1.54a1.84,1.84,0,0,0,.62-.27c0-.16-.11-.16-.44,0A.71.71,0,0,1,234.66,191.13Zm-1.48.52c-.24.34.25,0,.59-.13C233.88,191.3,233.39,191.6,233.18,191.65Zm-.21-1.13c-.05.31.39.18.72.14.25-.29-.18-.16.17-.6-.47.16-.12.31-.46.47S233.42,190.25,233,190.52Zm-1.19,1c-.18.17-.54.49-.1.32C231.77,191.81,232.08,191.43,231.78,191.56Zm-.07-.87a1.82,1.82,0,0,0-.76.71C231.48,191.18,231.88,190.73,231.71,190.69Zm-1.33.08c.08.17.44-.09.11.34.56-.39.36-.06.86-.3,0-.24-.55.05-.48-.21A1.34,1.34,0,0,1,230.38,190.77Zm-1.76.37c.86-.4.79.21,1.5-.24C229.77,190.91,229.39,190.47,228.62,191.14Zm0,.4a1.89,1.89,0,0,0,.49-.17c-.13-.1.23-.3-.15-.21C228.9,191.3,228.56,191.41,228.6,191.54Zm0,1c.16-.07.15,0,.37-.11l.11-.33A.84.84,0,0,0,228.59,192.54ZM226.7,191c0,.13,0,.22.27.16.06-.11.25-.2.32-.31C226.88,191.07,227.11,190.78,226.7,191Zm-3.08,0c0,.22.3.23.56.26,0-.12.1-.25.14-.38C223.73,191.21,224.14,190.77,223.62,191Zm-.51.2c-.05-.11.2-.45-.22-.29C222.82,191.14,222.67,191.4,223.11,191.22Zm-1.23-.23c.09.15.35.36.86,0A1.41,1.41,0,0,0,221.88,191Zm-.13,0c.14-.22-.06-.19-.26-.17S221.35,191.2,221.75,191Zm-21.5-9.36a.38.38,0,0,1,.11.63,1.12,1.12,0,0,1,.93-.2,1.29,1.29,0,0,0-.57,0C200.67,181.92,200.49,181.8,200.25,181.68ZM155.05,173c-.46-.21-.12-.34-.4-.54a.7.7,0,0,1-.64.12c.32.14.13.22.35.36C154.76,172.73,154.78,173,155.05,173Zm-.29.37c-.18.07-.21.15.12.27C155.06,173.53,155.08,173.45,154.76,173.33Zm.18.45c.31.12.92.15.52-.06C155.3,173.76,155.06,173.7,154.94,173.78Zm1.11.71c-.2-.1-.17-.18-.47-.29-.06.05-.65-.09-.35.08.17-.06.45.05.35.14a1.46,1.46,0,0,0-.53,0c.24.09,0,.15.36.25C155.52,174.45,155.94,174.66,156.05,174.49Zm-.08,1.58.48.18C156.76,176.17,156.1,175.92,156,176.07Zm1.27.74c-.12,0-.28,0-.35.09.43.11.28.18.48.28C157.53,177.07,157.63,177,157.24,176.81Zm50.92,36.62c.33-.29,0-.27-.54-.21S207.6,213.53,208.16,213.43ZM202.08,210c.21-.19,0-.21-.25-.22S201.63,210,202.08,210Zm-1,2.09c0-.1.49-.36-.09-.24C200.64,211.91,200.6,212.19,201.13,212.06Zm-1.92-2.76c.39-.13.31-.27-.29-.17C198.9,209.23,198.78,209.36,199.21,209.3Zm-2.16-1.2c-.59.32-.55.46-1.06.75a8,8,0,0,1,1.89,0c.13-.21.24-.47-.23-.58-.28.06-.19.27-.65.26,0-.21.45-.26.63-.41C197.33,208.14,197.34,208.07,197.05,208.1Zm-1.89-.14c0,.21.48.28,1,.32.26-.2,0-.12.47-.39-.22,0-.58.06-.57,0s.31-.07.4-.13c-.38,0,0-.27-.9-.13C195.31,207.83,196.06,207.86,195.16,208Zm-1.37-.77c.22-.17.08-.23-.43-.17C193.15,207.19,193.62,207.14,193.79,207.19ZM190.16,206c.1.14.18.28.78.27C191,206.1,190.76,205.87,190.16,206Zm-3.63-2.17c-.28,0-.15-.15-.56-.05S186.36,204,186.53,203.83Zm-15.59-9.63a1.17,1.17,0,0,1,.37.11c.26,0,.44-.17.32-.25A.65.65,0,0,0,170.94,194.2Zm-2-2.28c.29.1-.16.26.41.34C169.43,192.15,169.41,191.87,169,191.92Zm-8.62-9.42c.31.1.09.22-.16.21a2.47,2.47,0,0,0,.56.12C160.87,182.74,160.79,182.47,160.36,182.5Zm-1-1.4c.17.1,0,.19.28.3C160.28,181.44,159.74,181,159.41,181.1Zm-.35.68a3.55,3.55,0,0,0,1.11.13c-.34.11-.31.32.22.33,0-.19,0-.57-.81-.66C160.1,181.85,159.22,181.68,159.06,181.78Zm-.4-3.09c-.38-.18.12-.5-.58-.57C158.28,178.3,157.93,178.6,158.66,178.69Zm9.59,2.85c-.14,0-.18,0-.13-.2-.24.29-.17,0-.13-.11l-.28.28c.09.08-.05.21-.05.31.15-.07.26.12.44-.06C167.94,181.66,168.16,181.7,168.25,181.54Zm.65,3.49c-.19,0-.19-.27-.33-.11S168.79,185.1,168.9,185Zm.14-6.75c0-.08-.1-.3-.28-.15C168.86,178.16,168.93,178.38,169,178.28Zm83.45,27.58h.06a0,0,0,0,0,0,0Zm-5.83,1.47.06,0h-.05Zm-17.47,0c.06.06.13,0,.21,0a.12.12,0,0,0-.09-.16C229.23,207.25,229.17,207.31,229.19,207.37Zm6.47-4.06c.33-.18.28-.43,0-.27C235.51,203.14,235.11,203.62,235.66,203.31Zm-1.22.34c-.09-.14.5-.27.4-.4l-.58.26C234.15,203.68,234.19,203.75,234.44,203.65Zm-1.57,1.19c.52-.31.08-.32.58-.53,0-.11,0-.18-.18-.14C233.25,204.39,232.22,205,232.87,204.84Zm-2.52.18c1-.51.14.07.89-.37a.68.68,0,0,0,.93.1c-.11.05-.35,0-.06-.13.09.08.35,0,.78-.12.15-.24-.23-.07-.66.12.08-.2-.4-.11.08-.47-.77.26-.39-.37-1.43.22.5-.39.07-.39-.39-.22C230.94,204.26,230.21,204.71,230.35,205Zm-1.21-1.68c.23,0,.59.09.91-.15A1,1,0,0,0,229.14,203.34Zm-1.85,1.16c.49,0,0,.29-.09.46.47-.31.4-.1.18.15a1.2,1.2,0,0,0,.59-.23c0,.33,1-.08,1,.27.41-.14.77-.55.57-.17.47-.17,1.19-.68.59-.51a.57.57,0,0,1-.36.25c1-.71,0-.53-.16-.75l-.73.3c-.2-.05.09-.43-.54-.17-.45.39,0,.5.42.43-.19.08-.12.11-.06.13-.22,0-.8.25-1,.2C228,204.49,228,204.21,227.29,204.5Zm-.7-.06c.53-.24.68-.23.47,0l.44-.17c0-.24-.46-.13-.8-.13C226.66,204.27,226.62,204.35,226.59,204.44Zm-1.33-.05c-.07.19.2.16.77-.07C226,204.16,225.55,204.34,225.26,204.39Zm-1.39.59a4.65,4.65,0,0,0,1-.23c.13-.21-.29-.08-.07-.35.45-.22.7-.05,1.11-.29-.17,0-.26,0-.2-.09l-.74.27c0-.32-.44-.09-.57-.33-.06.13-.44.22-.42.36.58-.2.62,0,.7.07C224.26,204.58,223.93,204.77,223.87,205Zm-.59-.81c.46-.1-.15.27.44.12C223.94,204,223.72,203.85,223.28,204.17Zm-1.8,7c-.36.22,0,.27.61.08C222.28,211,221.85,211.07,221.48,211.14Zm.56-8.67c.5-.17.07.25.57.07C222.76,202.33,222.46,202.18,222,202.47Zm0,1.55a3.59,3.59,0,0,0-1,0C220.88,204.29,221.46,204.46,222,204Zm-1.13,0c0-.13-.15-.17-.25-.24C220.35,204.07,220.44,204.16,220.88,204.07ZM219.63,211c0,.16.64.15,1.11-.12C220.25,211,220.39,210.7,219.63,211Zm.57-7.26c0-.08.17-.24,0-.2,0,0-.06.08-.18.11.07-.11,0-.13-.19-.1C219.71,203.71,219.82,203.79,220.2,203.7Zm-.83.42c.29-.09.09.11.52-.06,0-.06.07-.12.1-.19C219.63,204,219.59,203.9,219.37,204.12ZM218.13,202a5.06,5.06,0,0,0,1.27.13C219.3,201.92,218.83,201.91,218.13,202Zm-2.27,8.86c-.09.2.3.15.75.06C216.8,210.7,216.17,210.88,215.86,210.89Zm-.69-9.07c.25,0,.77-.26,1-.16.28-.27-.26-.07-.09-.28C215.55,201.49,215.2,201.62,215.17,201.82Zm-.53,8.49c-.49.25,0,.25.23.25C215.27,210.36,215,210.24,214.64,210.31Zm-.16-6.59c.08-.16.31-.19.14-.24C214.08,203.58,213.88,203.91,214.48,203.72Zm-3.32-3.27c0,.17.21.22.64.16C211.81,200.44,211.59,200.39,211.16,200.45Zm-.11,9.45c-.27,0-.07-.22-.62-.08C209.89,210.17,211.39,209.9,211.05,209.9Zm-4.09-.53c0,.2.78.08.91.24C208.41,209.29,207.46,209.35,207,209.37Zm-.31-7.3.29-.06s0,.07.11,0c.33-.22.34-.43-.14-.38C206.66,201.89,207.06,201.88,206.65,202.07ZM203,197.65c0-.12.34-.16.33-.3C202.83,197.38,202.57,197.71,203,197.65Zm-1-6.91c.24-.12.19-.3-.22-.22C201.74,190.64,201.76,190.74,202,190.74Zm-2-1a.53.53,0,0,0,.7,0c-.72.1.32-.4-.36-.35C200.35,189.64,200.31,189.55,200,189.76Zm-.74.05c-.36.29.58.32.89.44,0-.13.32-.16.31-.3C199.54,190.16,199.85,189.79,199.3,189.81Zm-.5-6.36c-.05.15.1.22.43.19C199.44,183.41,199.11,183.43,198.8,183.45Zm.2,5.75c-.2.2-.08.27.17.28S199.57,189.07,199,189.2Zm.14,1.4c.27-.12.11-.25-.21-.23C198.75,190.55,198.94,190.57,199.14,190.6Zm.65-9a.91.91,0,0,1,.38,0l-.22-.1A.4.4,0,0,1,199.79,181.63Zm-.37.61c.36,0,.34-.18.58-.23a1.54,1.54,0,0,0-.68-.31,1.13,1.13,0,0,1,.41-.23l-.3-.1a.42.42,0,0,1,.14.09c-.2.18-.22.09-.51.13C198.83,182,199.77,182,199.42,182.24Zm-.42.17c-.06.22.19.3.41.39C199.42,182.6,199.47,182.38,199,182.41Zm-.52-1.42c0,.06,0,.08.13.07Zm-.11.49c.14,0,.34,0,.32,0s-.06.11.05.09.12-.18.17-.27A.84.84,0,0,0,198.37,181.48Zm-.18.84c.56-.14.36-.27.35-.41-.18,0-.42,0-.51.12C198.48,182,198.49,182.1,198.19,182.32Zm0-1.52a.73.73,0,0,1-.16-.14l-.51,0C197.35,180.87,197.85,180.88,198.19,180.8Zm-.72.39c.13.05,0,.22.33.16s-.36-.14.34-.19c.25-.2-.36,0-.1-.19a1,1,0,0,0,.28-.07l-.12-.09C197.76,181,198,181.07,197.47,181.19Zm-17.62-1.14c.2-.44,0,.32.35-.05-.22-.34-.14-.34-.38-.5C179.76,179.76,179.92,179.76,179.85,180.05Zm-2-11.18c-.13-.09.05-.26,0-.37C177.57,168.65,177.64,168.93,177.81,168.87Zm-.55,6.6a.26.26,0,0,0,.41.09c-.08-.14-.2-.07-.3-.08s.06-.06.19-.19C177.49,175.14,177.36,175.39,177.26,175.47Zm.41,1.05c-.07,0-.12-.21-.22-.1.13.07.11.2,0,.23.07,0,.12.21.22.1C177.55,176.7,177.57,176.62,177.67,176.52Zm-1.08-6.82c-.13.43.5.26,0,0Zm0,5.1c-.17.15-.14.25-.17.37.27-.37.23,0,.41-.16Zm0-8.17h.07v0Zm-.34,7.31a.23.23,0,0,0-.23,0c-.14.19.56.29.08.51a.73.73,0,0,0,.25.13c-.07-.14.07-.13.19-.19C176.5,174.12,176.05,174.2,176.21,173.94Zm.26,3.77a.65.65,0,0,0-.48-.16c0,.09.08.16.08.25C176.23,177.59,176.32,177.8,176.47,177.71Zm-.41,6.4a.44.44,0,0,1-.17.12c.09.06.19,0,.17.14C176.2,184.25,176.17,184.17,176.06,184.11Zm.08-10.41.18-.19a.46.46,0,0,0-.33-.11C175.92,173.52,176,173.62,176.14,173.7Zm-.47-.23c.19,0,.08.41.32.19-.22-.1-.18-.26-.17-.41C175.72,173.33,175.75,173.39,175.67,173.47ZM175.6,177c-.17.34.07,0,.21.18.15-.11,0-.16,0-.23C175.73,177.2,175.7,176.91,175.6,177Zm-.54,6.79c.1-.14.12-.21.27-.21s0,.1.06.13c.11-.29.23,0,.41-.17,0-.15-.15-.06-.26-.05a.51.51,0,0,1,0-.49c0,.05.12,0,.19,0s.09-.22,0-.29c-.12.1,0,.16-.2.27.07-.22-.19-.11.09-.28-.07-.09,0-.22-.21-.18s-.12.25-.17.37c.07-.06.12,0,.18.07-.18.12,0,.16,0,.22a.44.44,0,0,0-.1.17.37.37,0,0,0-.34-.11c.08.13-.08.2-.18.19.07.1-.17.46.05.4,0,0,0-.15.06-.12,0,.2.34.43,0,.6.09.09.22-.06.33-.07s-.13-.12-.05-.22.11,0,.15,0a.36.36,0,0,0,.12-.25C175.29,184.09,175.3,183.76,175.06,183.83ZM174.9,180c-.5-.17-.32-.46,0-.76-.21-.1-.37-.41-.52-.18.14,0,.2.24.41.17,0,.17-.33.39-.47.48C174.51,179.78,174.63,180,174.9,180Zm-.64,4c0,.11.2.32.31.27S174.39,184.13,174.26,184Zm.68-1.58c.23-.16.15.17.39,0C175.25,182.22,175,182.14,174.94,182.39Zm.21-5.74c.2,0-.06.19.08.25s.34-.13.3.08C175.73,176.7,175.37,176.58,175.15,176.65Zm-.29-1.83.14.12c.08-.07.08-.12.06-.16a.53.53,0,0,1,.44.22c0-.12.07-.29,0-.41-.2.27-.3,0-.48.16l-.05-.07Zm-.16,1.26c-.13-.07-.23-.32-.4-.17C174.53,175.89,174.47,176.26,174.7,176.08Zm-.39-3.17c.08.08.16.16.27.06s0-.15-.05-.22C174.45,172.85,174.39,172.82,174.31,172.91Zm-.39,2c.12.09.26,0,.38.06-.07-.14.33,0,.27-.21-.14.13-.59.18-.23,0C174.22,174.62,174.05,174.88,173.92,174.89Zm-.58.45c.11.08.26,0,.39,0C173.61,175.24,173.49,175.18,173.34,175.34Zm.11.11.17.15C173.84,175.42,173.59,175.28,173.45,175.45Zm-.45-.22.07.06c.13-.11.42-.28.39-.46a1.23,1.23,0,0,1-.44.32S173.05,175.19,173,175.23Zm-.36-1.12c.11,0,.21.14.34,0C172.87,174.1,172.78,174,172.64,174.11Zm-.44,1.34c0,.43.13,1,.73,1.06,0,.19-.22,0-.18.19.31,0,.5.49.64.38C173.06,176.58,172.79,175.6,172.2,175.45Zm-.11,2.79c.11,0,.2.06.33-.07C172.34,178.11,172.08,178,172.09,178.24Zm-.3-2.74c.09,0,.16,0,.24,0a.3.3,0,0,0,.16,0c0-.07-.06-.15-.14-.18s-.13-.19-.24-.18S171.65,175.42,171.79,175.5Zm-.73,2.11c.17-.13.11-.22.29-.36C171.18,177.08,171,177.51,171.06,177.61Zm.36,10.93c-.09.09-.14-.06-.24.06s-.23.14-.16.3c.24-.22.15.25.28.16A.43.43,0,0,1,171.42,188.54Zm0-10.68a.11.11,0,0,0,.09,0,.16.16,0,0,1,0-.06c.16-.23.29-.46.13-.74-.29.32-.2.55-.62.75.28.18-.22.45.1.62A1.75,1.75,0,0,1,171.44,177.86Zm.43,12c-.07-.12-.19.08-.26-.05s0-.08,0,0,0,0,0,.08-.07-.06-.12,0c.14.05,0,.17.16.22A.66.66,0,0,1,171.87,189.9Zm.08-8.34c.09.08.22.15.2.26C172.33,181.61,172.1,181.52,172,181.56Zm.36-2.76c0-.29-.09-.25-.12-.51a1.06,1.06,0,0,0-.33,1.18C172.2,179.4,171.86,179.05,172.31,178.8Zm.31,8.13a.13.13,0,0,0-.22-.11C172.47,186.91,172.45,187.05,172.62,186.93Zm0-.27c-.2,0,.06-.19-.08-.24s-.17.26-.17.37C172.46,186.7,172.52,186.82,172.62,186.66Zm.25-7.66c.06.05.43.09.26.06a.22.22,0,0,1-.09-.17C172.82,179,172.53,178.64,172.87,179Zm.16,3.15c-.11.24.28.44.41.36C173.24,182.32,173.16,182.34,173,182.15Zm.39-.28a.52.52,0,0,1-.22-.28C173,181.74,173.25,182,173.42,181.87Zm-.08,9.42c-.13-.06,0-.17-.15-.23a.55.55,0,0,0-.2.27C173.09,191.44,173.21,191.41,173.34,191.29Zm.32-8.18c-.21-.12-.23-.27-.41-.17C173.38,183.06,173.51,183.15,173.66,183.11Zm.25-3.56c-.25-.09-.32-.41-.53-.55-.12.12-.24.23-.25.32C173.42,179.25,173.52,179.8,173.91,179.55Zm0-4,.14-.14c-.05-.16-.34-.1-.32.07C173.86,175.41,173.94,175.48,173.92,175.58Zm.12.28c.12-.24.16.11.27,0s-.13-.19-.25-.13C174.1,175.74,174,175.81,174,175.86Zm.71,13.36c-.1.17-.21-.11-.22-.1s.05,0,.08,0-.14-.06-.24.05S174.73,189.52,174.75,189.22Zm-.17-3.86c.06-.06.1-.12,0-.16-.25.29,0,.27.11.28S174.69,185.35,174.58,185.36Zm.61-.36-.1-.09c-.09.21-.22.07-.27.05s.11,0,.19-.08c-.48.15-.53-.64-.94-.71a3.75,3.75,0,0,0,.54.8.15.15,0,0,1,.2,0s0,0,0,0c.11.24.14.09.31,0C175.13,185,175.15,185,175.19,185Zm.14-.41a.49.49,0,0,1-.22.16C175.21,184.89,175.5,184.72,175.33,184.59Zm.4.17c-.07-.23-.08-.68-.27-.76.15.16-.24.45.1.35C175.49,184.51,175.36,185.05,175.73,184.76Zm.85.56c-.21-.08-.48,0-.34-.3-.05.09-.15.09-.21.11a.2.2,0,0,1-.1-.17.41.41,0,0,1-.17.12.25.25,0,0,0,.22.09.06.06,0,0,0,0,.06C176.18,185.23,176.35,185.46,176.58,185.32Zm.31-9.28c.13,0,0,.15.05.21l.18-.19c-.1-.11-.22,0-.32-.19s.23-.22.17-.3c-.08.07-.07,0,0-.11a.2.2,0,0,0,.26.06c-.16-.11-.58-.13-.36-.41,0,0-.06.06-.09,0s0,0-.08,0a.31.31,0,0,0,0,.26c-.06.07-.1,0-.16,0s-.05.18-.17.3a4.21,4.21,0,0,1,.4.69C176.92,176.28,176.68,176.21,176.89,176Zm.09-.28c.2.07.11.09.19.25C177.28,175.83,177.14,175.62,177,175.76Zm-.13,1.29c.13,0,.23.18.38.06,0-.05,0-.07.09-.1A.93.93,0,0,0,176.85,177.05Zm.52,7.72c-.1-.08-.43,0-.34.15.28-.18,0,.1,0,.15.1-.15.13.18.23,0C177.12,185,177.17,184.87,177.37,184.77Zm-.06-7.68c.11,0-.28.2-.06.13,0,0,.06-.06.09,0s-.06.11,0,.15C177.53,177.34,177.49,177,177.31,177.09Zm.16.75c.14,0,.15,0,.2.17l.1-.09s0-.06,0-.08-.16-.13-.13-.19C177.53,177.78,177.5,177.69,177.47,177.84Zm.15,7.32c.1.06-.15.21,0,.26s.14-.07.21-.08S177.81,185,177.62,185.16Zm.23-14.58c-.11.1-.19,0-.27-.05-.06.08-.18.17-.15.22.18-.11.25-.06.22.1C177.76,170.77,177.88,170.72,177.85,170.58Zm.37-1.09c0-.09-.09-.09-.17,0-.16-.16-.42-.23-.55-.11.17,0,.3.13.45.19-.16.16-.32.45-.15.39C177.79,169.77,178.11,169.57,178.22,169.49Zm.61,8.81a4.18,4.18,0,0,0-.66-1c-.11.38.33.41.2.78C178.72,177.87,178.49,178.5,178.83,178.3Zm.29.42c-.05-.07,0-.17-.08-.24C178.94,178.61,178.94,178.88,179.12,178.72Zm.23.29a1.2,1.2,0,0,0-.15-.3c-.09.08-.06.13-.15.22C179.32,178.85,179.1,179.13,179.35,179Zm.24.2c-.09,0-.15-.23-.25-.13A.15.15,0,0,0,179.59,179.21Zm0-1.54c.11,0,.22-.06.32,0s-.1.09-.06.12c.07-.15.16-.13.15-.22-.2,0-.37-.12-.58-.05.1.06,0,.49.23.28S179.43,177.85,179.59,177.67Zm.71,8.93c-.14-.11-.3-.63-.61-.4C179.92,186.19,180.07,186.64,180.3,186.6Zm.28-6c-.08-.07-.18,0-.25-.13.12-.16,0-.08.08-.28-.11.15,0-.23-.18-.07.06.06-.13.18,0,.23s.09-.09.13-.06-.19.16-.15.22.1.36.32.18c-.09.07-.08.17,0,.11S180.5,180.67,180.58,180.59Zm.83,17.84c0,.12-.07.29,0,.41C181.58,198.69,181.5,198.4,181.41,198.43Zm.16-16.73c-.21,0-.13-.21-.1-.35-.28.33-.26-.25-.46,0,.12.07.11.11,0,.16.17.18.1.23.3.08.12.16,0,.18,0,.34C181.33,181.78,181.71,181.67,181.57,181.7Zm.05-10.56c-.15,0,0-.2-.41-.18C181.05,171.08,181.35,171.26,181.62,171.14ZM182,199c-.09-.07-.2,0-.32.07l.13.12Zm.68-6.16c-.34,0-.15-.53-.45-.38,0,.19.33.32.23.54C182.56,193,182.62,193,182.7,192.88Zm.18-6.62c.19,0,.2.21.32.19C183.26,186.27,183.07,186.16,182.88,186.26Zm.21-1.58c0,.09-.07.19.08.24S183.18,184.6,183.09,184.68Zm1-8.28c-.13,0-.41-.36-.45-.12a2.39,2.39,0,0,0,.89.32c-.06.15-.26.1-.19.19a.15.15,0,0,1,.2,0c.24-.33-.2-.49-.41-.61C184.26,176.21,184.25,176.29,184.11,176.4Zm.5,14.29a5.84,5.84,0,0,0,.44.53c-.25.3-.19.52-.59.72.27.18-.22.44.1.61.12-.45.72-.81.55-1.28a.43.43,0,0,0,.31.16C185.29,191.28,184.91,190.78,184.61,190.69Zm.22-13.41c0-.18.23-.16.3-.18a.2.2,0,0,0-.26,0S184.57,177.36,184.83,177.28Zm.93-2.75c-.13.12-.14-.07-.45,0s.31.22.48.11C185.59,174.61,185.91,174.55,185.76,174.53Zm-.68,17.31c.12,0,.18.35.33.22S185.28,191.58,185.08,191.84Zm-.63-4.67s.07.05.12,0l-.18-.15c-.15.09-.09.31.05.22C184.42,187.22,184.4,187.2,184.45,187.17Zm-.13-.91c-.1,0-.19-.13-.3-.08.09.19.15.18.1.35-.11-.13-.3.27-.41.18,0,0,0,.08,0,.13C183.94,186.68,184.2,186.58,184.32,186.26Zm1.06,10.52c0-.38-.88-.38-.6-.87a0,0,0,0,0,.05,0c-.31.15-.21-.05-.28-.23-.15.1-.31.08-.21-.1-.42.21.1.23.23.47-.17.05,0,.06-.1.17C184.78,196.38,185.21,196.65,185.38,196.78Zm.37-3.84c0-.29-.09-.25-.11-.51a1.06,1.06,0,0,0-.33,1.19C185.65,193.54,185.31,193.19,185.75,192.94Zm.08-1.42a.2.2,0,0,0-.23,0c.2,0-.15.4.14.3,0-.08-.08-.15,0-.26S185.79,191.57,185.83,191.52Zm.34.56c-.17-.09-.29-.28-.38-.06.21-.16-.09.31.17.14T186,192S186.11,192.13,186.17,192.08Zm.57-15.69a1.8,1.8,0,0,1-.49,0c-.13.2-.12.36.4.36A.22.22,0,0,1,186.74,176.39Zm.53,18.05c0-.08,0-.18-.08-.24-.12.1-.27.14-.2.27l.1-.1C187.15,194.41,187.2,194.5,187.27,194.44Zm1.1-17c.15-.25-.39-.27-.44-.45C187.75,177.29,188,177.41,188.37,177.48Zm.5.09c-.08,0-.1,0,0-.1a.75.75,0,0,0-.53.11c.15,0,.13.08.26.09S188.8,177.62,188.87,177.57Zm-.22-.9c-.45.23-.15.36.11.45C188.94,176.89,189,176.7,188.65,176.67Zm.29.79c.29,0,.13.21.53.19C189.57,177.51,189.29,177.32,188.94,177.46Zm1.3.36c-.1,0-.23,0-.27.06a1.32,1.32,0,0,0,.38-.06c-.06-.09,0-.23-.27-.24C189.82,177.77,190.2,177.74,190.24,177.82Zm.35.74c.06-.15-.28-.15-.39-.23C190,178.54,190.12,178.72,190.59,178.56Zm1.21.94c.08-.15.38-.18.45-.33-.28,0-.31-.18-.62-.21-.08.07-.3.07-.42.12C191.1,179.34,191.39,179.44,191.8,179.5Zm-.1-.95c0-.05.13-.06.19-.11-.35,0-.43.1-.5.23.13,0,.34,0,.31,0a.28.28,0,0,0-.23.17l.35,0c.13-.26.06-.2.37-.38C192,178.47,191.9,178.55,191.7,178.55Zm.71.56c0-.06.05-.12-.16-.09a.7.7,0,0,0,.63.36c-.14-.16,0-.24-.21-.34A.37.37,0,0,1,192.41,179.11Zm-1,.61a.62.62,0,0,1,.31,0c.19-.16.72-.13.8-.36A2.29,2.29,0,0,0,191.42,179.72Zm.79,6.34c-.73,0-.7.61,0,.35C191.79,186.39,192.38,186.2,192.21,186.06Zm.31-6a9.49,9.49,0,0,0,1.23-.34c-.33,0-.41-.37-.83-.24.23,0,.16.16.28.23-.22,0-.21,0-.42,0C192.75,179.81,192.82,179.94,192.52,180.06Zm1.22,13.09c-.38.06-.47,0-.28-.13-.72.1-.88.55-.32.58C193.24,193.34,193.28,193.33,193.74,193.15Zm-.19-5.17c.15-.17,0-.24-.32-.23C193.21,187.88,193.14,188,193.55,188Zm.64-7.3c0-.11-.06-.2-.44-.16-.14.17,0,.21.29.23A.16.16,0,0,1,194.19,180.68Zm.94.42c.08-.08.25-.11.34-.18-.15-.14-.64,0-.81.23a3.19,3.19,0,0,0,.81.27c0-.15.16-.27.09-.31S195.21,181.09,195.13,181.1Zm.88.67c.34-.11.58-.52.92-.41-.47.16-.16.12-.17.27.48-.19.06-.15.62-.12-.28.14-.37.19-.32.34.65-.22.1.25.8.1-.41-.28-.32-.68-1.23-.81.72-.12-.14-.29.55-.51a.35.35,0,0,1,.18,0c-.69-.73-2.63-1-3.14-1.85-.88-.07-.86-.41-1.3-.61a.6.6,0,0,1-.39-.1l-.18,0c.23-.32-.75-.29-.6-.59a5.37,5.37,0,0,1-2.5-1.43c-2.08-1-3.2-2.31-5.17-3.43l.2-.19c0-.07-.24,0-.33,0-.59-.65-1.27-1.09-1.82-1.75a.36.36,0,0,1-.38-.11l-.25,0c-.11-.14.62-.17,0-.3a1.67,1.67,0,0,0-.48.15s0,.08.33.13c-.11,0-.29,0-.34.12a.29.29,0,0,0-.18-.16l-.18.08a3.28,3.28,0,0,1,.43.39,1,1,0,0,1,.25,0c0-.13-.47-.23,0-.36.39.09-.06.37.62.45-.07.06-.13.13,0,.15a.74.74,0,0,1-.4.07c-.12.19.29.23.2.41.27.06.34,0,.58,0-.07.16-.44,0-.27.18s.29-.16.47,0c0,.11-.27.06-.34.13,1.4.19,1.1.94,2,1.15.2,0,.2-.16.38-.18s-.16.46.65.41a.64.64,0,0,1-.4.09c-.21.14,0,.13-.1.25a.3.3,0,0,0,.34-.14c.3,0,.17.17.39.21-.06.06-.23,0-.37,0s.14.1.06.2c.14,0,.21-.11.41-.09l-.16.2c.25,0,.31-.09.59,0a2.69,2.69,0,0,0,.81.8h-.34c.11.07-.14.25.14.25a.32.32,0,0,0,.34-.14.44.44,0,0,1,.31.6c.37-.07.53,0,.44.14-.48,0-.32.09-.38.21-.17-.28-.75-.24-.91-.56.11-.07.1,0,.22,0,.27-.16-.33,0-.06-.2a4.42,4.42,0,0,1-.89,0c.73.21.64.82,1.45.87-.05,0-.15,0-.19.1s.26-.12.49-.06c-.41.36.18.39.51.5-.36.18-.18.28.06.35a1.76,1.76,0,0,1,.84-.36c0-.11-.32-.19,0-.3.09.11.17.09.53,0-.29.16-.12.2-.34.31,0,.12.41.1.22.3.7-.1.72.22.75.47.47-.16.56-.06.42.19a.53.53,0,0,0,.34-.17c.46.08.2.43.61.52-.08.1-.4.06-.45.18s.54-.06.23.14a.77.77,0,0,0,.42-.13c.19.05-.43.16,0,.21a.78.78,0,0,0,.53-.14c0,.21.73.26.32.49.26,0,.32-.12.61-.1-.47.19.13.15.12.14.21.19-.31.48.45.47-.4.21.14.31.25.44.14,0,.2-.14.42-.14-.38.27.29.18,0,.5-.26.17-.61.06-.51-.05-.14,0-.17.24-.07.25-.29.19-.26-.06-.39-.07s-.19.14-.26.22.71-.06.4.22c.28,0,.56,0,.66-.15.42,0,.16.22.67.14-.16.11-.47.19-.29.28a1.06,1.06,0,0,0,.6-.91c.19,0,.49,0,.71.08-.09.09-.39.24,0,.2-.08.08-.25.11-.33.19s.28,0,.66,0c-.67.26-.05.67.7.43-.38.16.18.08-.09.31-.4,0-.15-.19-.56-.14s.34.19.49.25a.61.61,0,0,0-.29.28c-.08.13.34-.05.31-.13.26,0-.25.25-.5.25,0-.09-.27-.06-.05-.24-.2,0-.36.11-.55.15C195.4,181.67,196.06,181.57,196,181.77Zm.37.11c0,.13.33.24.52,0C196.51,182,196.88,181.75,196.38,181.88Zm-.61,6.17c.39-.3,0-.21.47-.5a.86.86,0,0,0-.77.42C195.66,188,195.47,188.1,195.77,188.05Zm.34.37c.08-.08.27-.12.36-.19-.23-.16-.8.14-.32-.22C195.41,188.09,195.6,188.49,196.11,188.42Zm.2.73c-.24,0,0-.2-.4-.11C195.62,189.23,196.06,189.31,196.31,189.15Zm.72,5.53c0-.14-.22-.17-.66-.13-.18.18-.84.44-.19.42A.91.91,0,0,1,197,194.68Zm1.24-6.15a.86.86,0,0,0-.93-.19c.11-.19-.65-.14-.08-.4l-.51.06c-.19.18.12.14-.19.27.47,0,.61.09.12.34.36,0,.37-.12.59-.17a2.75,2.75,0,0,1-.19.28C197.78,188.62,197.8,188.42,198.27,188.53Zm.15-5.54c.18.08.23.42.76.2.2-.18-.2-.44-.69-.31.49-.33-.19-.1-.34-.15a1.32,1.32,0,0,0,.75-.51c-.54.06-.41.43-1,.48.08-.08.23-.13.25-.23a1.09,1.09,0,0,0-.71.09C198,182.55,197.45,183.62,198.42,183Zm.22,13.13.41-.05c.11-.18.35-.43-.1-.39S198.93,195.89,198.64,196.12Zm.76-.19c-.36.18.23.14-.37.35C199.53,196.28,199.82,195.88,199.4,195.93Zm3.08.79a5.49,5.49,0,0,0-2.27-.69c-.45.35.71,0,.42.3-.34,0-.36-.05-.59.13.21.08.5-.11,1-.14-.23.28.66.06.38.36a1.34,1.34,0,0,0-.75,0c-.15.14.17.09-.06.26.32,0,.65-.31.74-.15-.06.14-.57.12-.58.28s.23.07.48,0,.32-.31.65-.4C201.93,196.77,202.26,196.72,202.48,196.72Zm7.23-5.18c0,.14,0,.23.21.26s.45.08.68-.22A6.27,6.27,0,0,1,209.71,191.54Zm-1.87-4.1c0-.32,1.59-1,.79-.91a1.38,1.38,0,0,1-.55.44c0-.12-.25-.05-.56,0C207.55,187.19,207.31,187.53,207.84,187.44Zm.28-.12c-.26.29.14.2.32.24C208.36,187.46,208.46,187.27,208.12,187.32Zm-1.1-.21c.12-.16.09-.24-.25-.15C206.66,187.12,206.69,187.2,207,187.11Zm-2.5,3.29c.24.07.08.68.77.26C204.68,190.75,205.16,190.29,204.52,190.4Zm-.48-.17c-.72.1-.77-.34-1.4-.16C203.11,190.09,203.21,190.66,204,190.23Zm.14,1.92c-.41,0-.4-.35-1-.08A1.19,1.19,0,0,0,204.18,192.15Zm1.13-.72c-.62.09-.56-.16-1.11-.1-.11.28.63.36,1,.27C205,191.62,205.19,191.49,205.31,191.43Zm1-.57c.1-.28-.35-.09-.94,0a.57.57,0,0,1-.26.25l.26-.05A1.28,1.28,0,0,1,206.32,190.86Zm.64-3.42c-.07.11-.44.12-.56.22s-.09.24.25.15C206.64,187.69,207.33,187.45,207,187.44Zm.95,4.26c.14-.23,0-.27.65-.56-1.22.39-1-.19-1.85-.15.06.22.54.37.84.53-.26.08-.57.15-.62.29C207.69,191.47,207.31,191.79,207.91,191.7Zm.69,0c-.47.19-.2-.24-.59,0C208.06,191.82,208.25,192,208.6,191.7Zm.46-4.5c-.32.08,0-.22-.54,0C208.38,187.34,208.79,187.41,209.06,187.2Zm1.37,5.36a1.58,1.58,0,0,1-.49.07.75.75,0,0,0-.07.12c-.08,0-.16,0-.16.09.65-.13-.29.21-.3.32.24,0,.15.12.6,0C210.05,192.91,210.32,192.76,210.43,192.56Zm.85-.32c-.79.1-1.06-.16-1-.41a2.08,2.08,0,0,1-.76.33c.34-.2.35-.22.16-.29a1.26,1.26,0,0,0-.45.21c.34-.27,0-.11-.14-.18.48-.14.25-.27-.13-.17s0,.17-.23.41c.44.05.7-.07.34.23a1,1,0,0,0,.69-.21C209.69,192.47,210.47,192.55,211.28,192.24Zm7.87.54L219,193l.4-.13C219.64,192.65,219.32,192.77,219.15,192.78Zm-.24-3.65c.41-.2.17.06.15.16a1,1,0,0,0,.56-.3c-.58.17,0-.37-.16-.43C218.86,188.8,219.23,188.82,218.91,189.13Zm-1.06-.06c.25,0,.51.15.94-.16,0-.2.19-.52-.38-.4-.17.22.14.1,0,.33S218,188.85,217.85,189.07Zm.26,4.53c.18-.12.43-.24.4-.4C218,193.3,217.68,193.72,218.11,193.6Zm.23-1c.34-.29-.35-.1-.47.05C218.07,192.58,217.9,192.78,218.34,192.57Zm-1.24-3.51c.27-.08.56.05.83-.17-.4.11-.12-.25-.63-.06A.54.54,0,0,1,217.1,189.06Zm.09,3.57c-.28.05-.25-.1-.54,0C216.55,192.76,216.82,192.91,217.19,192.63Zm-.6-3.14c-.21.14-.38.44,0,.33C216.53,189.74,216.87,189.41,216.59,189.49Zm-.43-.76c.11.19.61.12.89.19,0-.06,0-.13.08-.19C216.68,188.82,216.6,188.65,216.16,188.73Zm-1-.41c.42,0,.69-.47.8-.36-.1.13-.4.22-.38.38a2.23,2.23,0,0,0,.73-.44c-.36,0-.28-.28-.94-.07C215.54,187.93,215,188.24,215.15,188.32Zm.88.45c.08-.15.15-.3-.12-.22,0,.1-.36.14-.43.24C215.77,188.72,215.62,188.93,216,188.77Zm-.85,3.58c.06.07.15.34.55.05C215.48,192.42,215.57,192.24,215.18,192.35Zm-.1-3.65c-.08-.09,0-.29-.34-.21C214.6,188.73,214.8,188.75,215.08,188.7Zm-1.29,0c.5-.21.29,0,.7-.11l.06-.12c-.45.16-.18-.11-.49-.12A.67.67,0,0,0,213.79,188.68ZM213,192.2c-.06.22.3.18.58.2s.19-.29,0-.33C213.47,192.25,213.33,192.06,213,192.2Zm-.4-1.93c.08.12.33.14.44.25C213.24,190.38,213,190,212.6,190.27Zm-.38,2.14c-.17,0-.24-.09-.41-.1-.11.2-.42.38-.08.38C211.8,192.58,212.19,192.54,212.22,192.41Zm.58-.26c0-.22-.5,0-.31-.28a1.63,1.63,0,0,0-.55.2C212.32,192,212.08,192.38,212.8,192.15Zm-.25,2.3-.13.25.41-.11C212.94,194.42,212.91,194.34,212.55,194.45Zm2.86-1.38c-.35.26-.52.49-.5.57.66-.38,0,.18.57,0a1.8,1.8,0,0,1,.44-.92c-1,.38-.84-.24-1.17-.38-.12.11,0,.27-.28.34,0-.18-.23-.17-.16-.37.15,0,.25,0,.39-.12-.46.13-.38-.3-.9,0,.47-.07.23.39-.4.58.57-.36-.43-.31-.71-.17.21,0,1,0,.29.34,0-.06-.11-.07-.34,0-.06.34,1.16-.22,1.49-.26,0,.1-.09.2-.14.31C214.86,192.76,215.16,192.9,215.41,193.07Zm0,1c-.33.09.06-.2.12-.25l-.53.16C214.81,194.13,215.07,194.28,215.41,194Zm.52,5c-.36,0-.09-.32-.79-.09-.14.24.2.2.16.37A1.12,1.12,0,0,0,215.93,199.05Zm-.16-5.3c0,.13.51.1.84-.1C216.75,193.34,216.11,193.78,215.77,193.75Zm1.43-.38c.4-.11.48-.27.53-.44-.68.24-.55-.05-1,.07-.19.23-.64.37-.47.51.47-.09.49-.26.75-.39C217,193.21,217.29,193.17,217.2,193.37Zm1,.52c-.51.19-.49-.18-.82.05C217.53,194,217.7,194.33,218.21,193.89Zm.48-.59a5.11,5.11,0,0,1-.74.4c-.12.18.2.07.45,0C218.4,193.6,219,193.24,218.69,193.3Zm-.09-2.36c-.11.18-.07.26.28.12C219,190.88,219,190.81,218.6,190.94Zm.56,8.08c-.09.27.23.29.57.3C219.84,199,219.49,199,219.16,199Zm1.68-3.1a4.46,4.46,0,0,1,1.32-.42C222.31,195.11,221.19,195.57,220.84,195.92Zm3.69-1.2c.41-.11.46-.26.72-.39-.05.27,0,.3-.36.63.19,0,.4-.19.7-.33.14-.23-.1-.18-.12-.28.15-.06.26,0,.4-.16-.15-.17-.61,0-1.1.22C224.69,194.51,224.53,194.61,224.53,194.72Zm.74.14c-.18.26.19.1.28.16C225.92,194.75,225.71,194.67,225.27,194.86Zm-1.71,0c.05.26.45.28.93.23C225.2,194.56,224.19,194.74,223.56,194.88Zm.74-.72c.21-.29-.5,0-.74.18S223.82,194.31,224.3,194.16Zm-.84.7c-.37.16.27-.4-.3-.1,0,.11-.09.21-.13.32C223.19,195,223.4,195,223.46,194.86Zm1.31.69c-.56.22-.12-.28-.82,0q.2-.36-.54-.06c-.18.3.36,0,0,.33a2.54,2.54,0,0,0,.57-.27C223.67,195.94,224.36,195.84,224.77,195.55Zm0,4.14c.73-.3.42.1.65.14.15-.18.19,0,.46-.23C226,199.33,225.31,199.36,224.76,199.69Zm1.59-5c.14,0-.21.43.26.22C226.69,194.72,226.61,194.64,226.35,194.7Zm1.25,0a2.36,2.36,0,0,0-.64.22C226.74,195.17,227.52,194.86,227.6,194.66Zm-.35,4.72c-.11.19.11.14.48,0C227.85,199.16,227.63,199.22,227.25,199.38Zm.92-3.81c.15-.23-.09-.17-.12-.27a1.47,1.47,0,0,1-.76.21c.07.14,0,.14-.15.39.41-.23.61-.32.47,0A2.83,2.83,0,0,0,228.17,195.57Zm-.14,1c-.11.19.1.14.47,0C228.6,196.34,228.39,196.4,228,196.56Zm1-.94-.12-.22C228.78,195.56,228.86,195.61,229,195.62Zm.07-.34H229l-.05.06a.29.29,0,0,0,.16,0S229.07,195.31,229.07,195.28Zm1.81-1c.14-.21-.43-.08-.6.11C230.59,194.3,230.45,194.54,230.88,194.32Zm.09,5.15c-.7.28-.42.49,0,.33C231.14,199.55,230.79,199.71,231,199.47Zm.47-5.46c-.38.1-.82.53-.49.44C231,194.3,231.48,194.16,231.44,194Zm1.81.3c0-.19-.31-.09-.54-.07C232.67,194.44,232.74,194.57,233.25,194.31Zm1.6.28c.34-.19.26,0,.65-.27,0-.23,0-.17.14-.47-.57.34-.59.19-1,.41C234.54,194.5,235.19,194.12,234.85,194.59Zm.61,4.76a3.1,3.1,0,0,0-.59.33c.16.07.2.25.84-.07C235.9,199.3,235.25,199.68,235.46,199.35Zm1.75-5.46c-.67.35-.38-.16-1.08.22C235.8,194.42,236.89,194.33,237.21,193.89Zm1.92,5.3c0-.2-.36-.1-.85.1C238.2,199.57,238.47,199.55,239.13,199.19Zm.09-3.63c-.06.18-.11.36-.17.54.18-.09.17,0,.39-.15C239.84,195.63,239.7,195.35,239.22,195.56Zm1.35.81c0-.13-.36,0-.59.09a1,1,0,0,1,.18.06A1,1,0,0,1,240.57,196.37Zm.74-1.81c.29-.26,0-.16,0-.26-.56.44-.56.15-1,.33-.19.41-.25,0-.8.45.08.14.67-.19.82-.12,0,.4-1,1.23-.27,1C240,195.68,240.51,194.85,241.31,194.56Zm.56,1.31c-.18.13-.4.25-.56.38l.06,0c.14-.05.09.08.42-.13C241.82,196.05,241.84,196,241.87,195.87Zm6.09-2.94a1.29,1.29,0,0,0-.43.39.74.74,0,0,0,.67-.43c.18.06.76.22,1.72-.6-.5.27-.15,0-.48.08a1.62,1.62,0,0,0,.34-.53c-.1-.05-.25,0-.47.07a4.62,4.62,0,0,0-.6.71c.25-.53-.18-.31-.38-.36a5.07,5.07,0,0,1-1.54.82C246.58,193.46,247.51,193.07,248,192.93Zm.79,1.11c0,.1-.05.19-.07.28.17-.11.38-.23.42-.33C248.88,194.12,249.33,193.63,248.75,194Zm.64-.84c-.27.17-.13-.08-.5.21-.06.49-.69.33-1,.74.46-.26.51.18,1.13-.42l-.27.17A3.71,3.71,0,0,1,249.39,193.2Zm-2.38.94c-.08.3.16.21.54.13A1.21,1.21,0,0,1,248,194C247.85,193.8,247.09,194.32,247,194.14Zm.73-.71a4.54,4.54,0,0,0-.64.29C247,194,247.58,193.76,247.74,193.43Zm-1.68,1.3c.35-.19.36,0,.76-.29C247,194.17,246.35,194.4,246.06,194.73Zm-.05-1.21c.12-.2.78-.46.71-.63-.28,0-.31.33-.81.57,0,.12-.06.23-.08.35.24-.19.5-.14.66-.42C246.44,193.33,246.12,193.53,246,193.52Zm.49.34.06-.27c-.25.14-.31.26-.55.4C245.93,194.2,246.14,194.1,246.5,193.86Zm.78-2.53c.18.06.82-.64.43-.47C247.67,191,247.27,191.19,247.28,191.33Zm-1.77.89a4.21,4.21,0,0,1-1,.52c-.18.14-.9.66-.46.52.16-.27.31-.11.66-.4-.22.42.53-.13.55.07a2.11,2.11,0,0,1,1-.53c0,.12-.37.28-.43.39a2.59,2.59,0,0,0,1.32-1.38,1.8,1.8,0,0,0-.42.39c0-.11-.36.2-.36.12a2.79,2.79,0,0,0,.53-.41c0-.22-.38.07.07-.35-.14,0-.19,0-.61.28-.08.16.15.06-.05.21a2.9,2.9,0,0,0-.72.23c0,.25-.11.09-.41.31S245.59,192,245.51,192.22Zm-1.66.86c.32-.19.63-.38.69-.55C244.43,192.54,243.87,192.89,243.85,193.08Zm1,1.31c-.6.32-.5-.06-1.09.24.38-.09.13.43.78.06C244.61,194.6,244.84,194.48,244.89,194.39Zm.72-.15c-.41.18-.16.29-.57.47,0,.17.13.15.47-.05S245.77,194.22,245.61,194.24Zm1.74.88a1.25,1.25,0,0,1,.44-.4c0-.12,0-.18-.2-.11a4.09,4.09,0,0,1-1.77,1.09c.42.29,1.06-.22,1.68-.38C247.62,195.13,247.79,194.92,247.35,195.12Zm.92.27a3.61,3.61,0,0,1,.64-.19,1.44,1.44,0,0,1,.33-.27c0,.11,0,.14,0,.19a5.61,5.61,0,0,0,1-.24c0-.07,0-.19.13-.4a5.13,5.13,0,0,0-1.36.41.62.62,0,0,1,.42-.33l.09-.43c-.07,0-.26.06-.51.21-.06.23.38-.07.16.32-.38.24-.53.24-.91.47l.06-.28a1.1,1.1,0,0,0-.37.12.85.85,0,0,0-.3.31A.88.88,0,0,1,248.27,195.39Zm.75,1.8-.07,0c-.12,0-.27.08-.39.11h0c0,.12.13.21-.11.37l0,0,.25-.15A2.78,2.78,0,0,0,249,197.19Zm.69.07a1.49,1.49,0,0,1-.51,0C249.27,197.34,249.48,197.33,249.71,197.26Zm.68-.31a4.88,4.88,0,0,1-.73.05c0,.15.4.06.61,0Zm.35-3.07c.63-.5.56-1,0-.63-.28.31-.32.5-.22.52C250.92,193.35,250.91,193.58,250.74,193.88Zm-75.68-19.1a0,0,0,0,0,0,0l0,0Zm.34,8.63c-.1.08-.17-.07-.29.11C175.16,183.67,175.44,183.55,175.4,183.41Zm-4.11-5.77c.05,0,.07.19.15.22l.06-.08C171.46,177.7,171.42,177.56,171.29,177.64Zm4.74,7.49a.1.1,0,0,0-.05,0h.08S176,185.14,176,185.13Zm-4.21-9.74a1.36,1.36,0,0,1,.21.1.16.16,0,0,0,.08-.06l-.06-.09A.21.21,0,0,0,171.82,175.39Zm6.23-5.94-.1.08a.23.23,0,0,0,.18,0A.27.27,0,0,0,178.05,169.45Z"> </path>

</symbol>

</svg>


<svg aria-hidden="true" focusable="false" style="width:0;height:0;position:absolute;">
  <linearGradient id="gradient-horizontal" >
    <stop offset="5%" stop-color="var(--color-primary-dark)" />
    <stop offset="95%" stop-color="var(--color-primary-dark)" />
  </linearGradient>
</svg>


