<svg xmlns="http://www.w3.org/2000/svg" style="display:none">
<symbol id="icon-lightbulb" viewBox="0 0 32 32">
<path d="M20 32v-3h1v-3h1v-5.75c3.125-2.063 5-5.5 5-9.25 0-6.063-4.938-11-11-11s-11 4.938-11 11c0 3.75 1.938 7.25 5 9.25v5.75h1v3h1v3zM19 31h-6v-2h6zM10.75 19.563c-2.938-1.813-4.75-5.063-4.75-8.563 0-5.5 4.5-10 10-10s10 4.5 10 10c0 3.5-1.75 6.688-4.75 8.5l-0.25 0.188v2.313h-2.438l1.438-9.438-1-0.125-0.063 0.375-1.375 1-1.563-1.5-1.563 1.5-1.375-1-0.063-0.375-1 0.125 1.438 9.438h-2.438v-2.25zM14.438 22l-1.188-7.813 1.313 1 1.438-1.5 1.438 1.5 1.313-1-1.188 7.813zM11 23h10v2h-10zM12 26h8v2h-8z"></path>
</symbol>
<symbol id="icon-phone" viewBox="0 0 32 32">
<path d="M7.5 32h17v-32h-17zM8.5 31v-5h15v5zM8.5 25v-20h15v20zM23.5 1v3h-15v-3zM14 2h4v1h-4zM16 27c-0.813 0-1.5 0.688-1.5 1.5s0.688 1.5 1.5 1.5c0.813 0 1.5-0.688 1.5-1.5s-0.688-1.5-1.5-1.5zM16 29c-0.25 0-0.5-0.25-0.5-0.5s0.25-0.5 0.5-0.5c0.25 0 0.5 0.25 0.5 0.5s-0.25 0.5-0.5 0.5z"></path>
</symbol>
<symbol id="icon-watch" viewBox="0 0 32 32">
<path d="M26.5 16c0-3.5-1.75-6.563-4.375-8.5h0.375v-7.5h-13v7.5h0.375c-2.625 1.938-4.375 5-4.375 8.5s1.75 6.563 4.375 8.5h-0.375v7.5h13v-7.5h-0.375c2.625-1.938 4.375-5 4.375-8.5zM10.5 1h11v6.063c-1.625-1-3.5-1.563-5.5-1.563s-3.875 0.563-5.5 1.563zM21.5 31h-11v-6.063c1.625 1 3.5 1.563 5.5 1.563s3.875-0.563 5.5-1.563zM16 25.5c-5.25 0-9.5-4.25-9.5-9.5s4.25-9.5 9.5-9.5c5.25 0 9.5 4.25 9.5 9.5s-4.25 9.5-9.5 9.5zM16.5 10h-1v6.313l4.25 2.125 0.5-0.875-3.75-1.875z"></path>
</symbol>
<symbol id="icon-webpagetxt" viewBox="0 0 32 32">
<path d="M3 12h26v1h-26zM3 16h26v1h-26zM3 20h26v1h-26zM32 3h-32v26h32zM31 4v3h-30v-3zM1 28v-20h30v20zM3 5h2v1h-2zM7 5h2v1h-2zM11 5h2v1h-2z"></path>
</symbol>
</svg>
<svg aria-hidden="true" focusable="false" style="width:0;height:0;position:absolute;">
  <linearGradient id="gradient-horizontal" >
    <stop offset="1%" stop-color="var(--color-primary)" />
    <stop offset="50%" stop-color="var(--color-primary-light)" />
  </linearGradient>
</svg>